<svg width="18" height="17" viewBox="0 0 18 17" fill="none" xmlns="http://www.w3.org/2000/svg">
<path fill-rule="evenodd" clip-rule="evenodd" d="M14.4003 0H3.36044C1.68665 0 0.333374 1.35328 0.333374 3.02707V13.6396C0.333374 15.3134 1.68665 16.6667 3.36044 16.6667H14.4003C16.0741 16.6667 17.4274 15.3134 17.4274 13.6396V3.02707C17.4274 1.35328 16.0741 0 14.4003 0ZM11.8077 5.23504C11.9787 5.39886 12.2066 5.49145 12.4416 5.48433C12.6838 5.49858 12.926 5.40598 13.0898 5.23504C13.2607 5.05698 13.3462 4.82194 13.3391 4.57977C13.3462 4.34473 13.2607 4.11681 13.104 3.94587C12.9473 3.78205 12.7337 3.69658 12.4559 3.69658C12.2208 3.69658 11.9929 3.78205 11.822 3.94587C11.651 4.10969 11.5584 4.33761 11.5656 4.57977C11.5584 4.82194 11.6439 5.05698 11.8077 5.23504ZM8.59548 9.97151H5.94591L5.4046 11.6453C5.39035 11.7094 5.33337 11.7521 5.26927 11.745H3.93024C3.85189 11.745 3.83052 11.7023 3.85189 11.6168L6.14534 5.01425C6.15157 4.99348 6.1578 4.97212 6.1642 4.95014L6.1642 4.95013C6.17977 4.89673 6.19638 4.83975 6.21656 4.7792C6.24505 4.62963 6.2593 4.47293 6.2593 4.31624C6.25218 4.28063 6.28067 4.24501 6.31628 4.23789H8.16101C8.21799 4.23789 8.24648 4.25926 8.2536 4.29487L10.8533 11.6311C10.8747 11.7094 10.8533 11.745 10.7821 11.745H9.29349C9.24363 11.7521 9.19377 11.7165 9.17953 11.6667L8.59548 9.97151ZM6.35901 8.52564H8.16813C8.1254 8.37607 8.06842 8.19801 8.00431 8.01282C7.94021 7.82051 7.87611 7.61396 7.81201 7.40028C7.7764 7.28991 7.74258 7.18132 7.70875 7.07273L7.70875 7.07271L7.70873 7.07264C7.6749 6.96403 7.64107 6.85541 7.60545 6.74501C7.53423 6.52422 7.47013 6.31766 7.41315 6.11111C7.38794 6.02288 7.36412 5.93743 7.34108 5.85478L7.34106 5.8547L7.34105 5.85466L7.34102 5.85456L7.34102 5.85454C7.31201 5.75046 7.28423 5.6508 7.25645 5.55556H7.24221C7.1781 5.86182 7.09976 6.16809 7.00004 6.47436C6.95936 6.60453 6.91868 6.73677 6.87761 6.87029L6.87756 6.87044L6.87756 6.87045L6.87756 6.87045C6.81078 7.08755 6.74296 7.30802 6.67241 7.52849C6.57269 7.89174 6.46585 8.2265 6.35901 8.52564ZM11.6439 11.6667V6.18234C11.6439 6.11111 11.6724 6.08262 11.7365 6.08262H13.1468C13.2109 6.08262 13.2394 6.11823 13.2394 6.18234V11.6667C13.2394 11.745 13.2109 11.7806 13.1468 11.7806H11.7508C11.6795 11.7806 11.6439 11.7379 11.6439 11.6667Z" fill="black"/>
</svg>
