<svg width="20" height="20" viewBox="0 0 20 20" fill="none" xmlns="http://www.w3.org/2000/svg">
<rect width="20" height="20" fill="white"/>
<circle cx="10" cy="10" r="10" fill="black"/>
<mask id="mask0_130_32513" style="mask-type:luminance" maskUnits="userSpaceOnUse" x="0" y="0" width="20" height="20">
<circle cx="10" cy="10" r="10" fill="white"/>
</mask>
<g mask="url(#mask0_130_32513)">
<path d="M5.62498 7.71974L7.34326 3.75H10.3148L11.29 5.97369V3.75H14.9839L15.5644 5.35721L16.1272 3.75H21.5392L21.5308 10.8815H9.87462L9.41819 9.7573H8.2011L7.7479 10.8815H5.62498H4.27661L5.62498 7.71974Z" fill="white"/>
<path d="M12.2217 9.81176V4.46315L14.3784 4.47105L15.6328 7.9195L16.8571 4.46315H18.9966V9.81176H17.6416V5.87068L16.2053 9.81176H15.017L13.5767 5.87068V9.81176H12.2217Z" fill="black"/>
<path fill-rule="evenodd" clip-rule="evenodd" d="M5.625 9.81176L7.95287 4.46315H9.71769L12.0433 9.81176H10.4944L10.0671 8.74072H7.57008L7.14056 9.81176H5.625ZM9.57525 7.57951L8.81413 5.70793L8.05079 7.57951H9.57525Z" fill="black"/>
<path d="M7.75 16.625V10.2886L7.75 9.49353H9.70916L10.7842 9.90095L12.9183 10.1875L15.3149 10L16.1794 10.5496L16.9586 10.1875H19.8715L21.0691 9.49353L18.5314 12.9178L21.1565 16.625H16.9586L16.143 15.5463L15.3149 16.625H7.75Z" fill="white"/>
<path d="M8.64136 15.7336V10.385H13.0985V11.5814H10.0216V12.4963H13.0266V13.6223H10.0216V14.5724H13.0985V15.7336H8.64136Z" fill="black"/>
<path d="M13.3273 15.7336L15.4464 13.0923L13.2769 10.385H14.9572L16.2493 12.0586L17.5458 10.385H19.1603L17.0193 13.0593L19.1423 15.7336H17.4622L16.2076 14.0863L14.9835 15.7336H13.3273Z" fill="black"/>
</g>
</svg>
