<svg width="92" height="72" viewBox="0 0 92 72" fill="none" xmlns="http://www.w3.org/2000/svg">
<path d="M26.098 46.8855C21.6296 53.4474 17.1612 60.0092 12.6929 66.5711H19.0776C15.5205 60.7999 11.9633 55.0286 8.40618 49.2573C7.89815 48.4331 7.39012 47.6088 6.88209 46.7846C5.84804 45.1069 3.5664 44.4781 1.8237 45.4804C0.116905 46.462 -0.541512 48.7688 0.497341 50.4543C4.05448 56.2255 7.61162 61.9968 11.1688 67.768C11.6768 68.5923 12.1848 69.4166 12.6929 70.2408C14.1924 72.6737 17.5409 72.4974 19.0776 70.2408C23.546 63.679 28.0144 57.1171 32.4828 50.5552C33.5942 48.9232 32.8051 46.5295 31.1564 45.5813C29.3409 44.5371 27.212 45.2496 26.098 46.8855Z" fill="#01010C"/>
<path d="M88.3027 0.443596C73.5361 2.08635 59.8606 10.841 52.7689 24.0643C48.9539 31.1778 46.6632 40.5505 51.2066 47.9032C55.2911 54.5133 64.1963 58.0796 70.9916 53.1986C77.8692 48.2584 78.9885 39.5061 77.1576 31.7565C76.2203 27.7894 74.7134 23.9125 73.1993 20.1342C71.8294 16.716 70.3367 13.2978 68.2405 10.2547C63.8671 3.90576 57.237 -0.379799 49.3225 0.026619C41.3348 0.436806 34.1288 4.70969 29.1133 10.8265C23.2334 17.9973 19.6214 26.893 16.7608 35.6381C13.6202 45.2392 11.7616 55.2239 11.0081 65.2938C10.8585 67.2923 12.8144 69 14.7053 69C16.8305 69 18.2526 67.298 18.4026 65.2938C19.469 51.0434 23.0049 36.4615 29.5482 23.7062C32.4275 18.0931 36.2048 12.6691 41.8763 9.62262C46.8062 6.97446 52.9613 6.40804 57.7206 9.71498C62.2253 12.845 64.661 18.4291 66.5713 23.3841C68.8002 29.1656 72.0552 36.2095 70.0444 42.4677C68.5329 47.1717 63.8309 49.8858 59.6217 46.4665C54.6993 42.4677 55.7279 35.3616 57.9806 30.1866C63.2047 18.185 75.3289 9.29929 88.3027 7.85597C90.2871 7.6352 92 6.31061 92 4.14979C92 2.31754 90.3002 0.221405 88.3027 0.443611V0.443596Z" fill="#01010C"/>
</svg>
