<?xml version="1.0" encoding="UTF-8"?>
<svg width="18px" height="18px" viewBox="0 0 18 18" version="1.1" xmlns="http://www.w3.org/2000/svg" xmlns:xlink="http://www.w3.org/1999/xlink">
    <title>18x18</title>
    <g id="18x18" stroke="none" stroke-width="1" fill="none" fill-rule="evenodd">
        <g id="Group" transform="translate(1.510000, 2.250000)" fill="#000000" fill-rule="nonzero">
            <path d="M9.000001,2.98828 L9.000001,1.51172 L5.976561,1.51172 L5.976561,2.98828 L9.000001,2.98828 Z M13.499981,2.98828 C13.898481,2.98828 14.238281,3.14062 14.519481,3.44531 C14.824181,3.75 14.976581,4.10156 14.976581,4.5 L14.976581,6.75 C14.976581,7.14844 14.824181,7.5 14.519481,7.80469 C14.238281,8.10938 13.898481,8.26172 13.499981,8.26172 L9,8.26172 L9,6.75 L5.976561,6.75 L5.976561,8.26172 L1.476561,8.26172 C1.054691,8.26172 0.703121,8.12109 0.421875,7.83984 C0.140625,7.53516 6.66133815e-16,7.17188 6.66133815e-16,6.75 L6.66133815e-16,4.5 C6.66133815e-16,4.10156 0.140625,3.75 0.421875,3.44531 C0.726561,3.14062 1.078121,2.98828 1.476561,2.98828 L4.464841,2.98828 L4.464841,1.51172 L5.976561,0 L8.964841,0 L10.476581,1.51172 L10.476581,2.98828 L13.499981,2.98828 Z M5.976561,9.73828 L9.000001,9.73828 L9.000001,9 L14.238281,9 L14.238281,11.9883 C14.238281,12.4102 14.085981,12.7734 13.781281,13.0781 C13.499981,13.3594 13.148481,13.5 12.726581,13.5 L2.250001,13.5 C1.828121,13.5 1.464841,13.3594 1.160161,13.0781 C0.878901,12.7734 0.738281,12.4102 0.738281,11.9883 L0.738281,9 L5.976561,9 L5.976561,9.73828 Z" id="Shape"></path>
        </g>
    </g>
</svg>