<svg width="87" height="93" viewBox="0 0 87 93" fill="none" xmlns="http://www.w3.org/2000/svg">
<path d="M0.41871 52.5999C1.15882 64.6179 1.89896 76.6358 2.63907 88.6538C2.78239 90.981 4.40864 92.5872 6.74134 92.7479C12.7932 93.165 18.8464 93.0645 24.881 92.4467C26.9143 92.2385 29.2194 90.7331 28.9832 88.3525C27.7202 75.6226 26.691 62.8713 25.8963 50.1037C25.7667 48.0216 24.1185 45.8372 21.7941 46.0096C15.8968 46.447 9.99952 46.8844 4.10227 47.3219C1.89261 47.4858 0 49.0862 0 51.416C0 53.5047 1.88079 55.675 4.10227 55.5102C9.99952 55.0728 15.8968 54.6353 21.7941 54.1979L17.6918 50.1037C18.4865 62.8713 19.5156 75.6226 20.7787 88.3525L24.881 84.2584C18.8464 84.8761 12.7932 84.9767 6.74134 84.5596L10.8436 88.6538C10.1035 76.6358 9.36336 64.6179 8.62324 52.5999C8.48731 50.3925 6.83513 48.5057 4.52098 48.5057C2.40544 48.5057 0.282088 50.3815 0.41871 52.5999Z" fill="#01010C"/>
<path d="M28.4189 32.9522C29.1593 51.4827 29.8997 70.0131 30.6401 88.5436C30.7353 90.9273 32.4561 92.3845 34.744 92.627C41.1931 93.3103 47.583 93.0246 53.9817 92.0166C55.645 91.7546 57.0998 89.7115 56.9946 88.0791C55.7284 68.4335 54.6994 48.7735 53.9065 29.1034C53.8253 27.0901 52.0825 24.7594 49.8026 25.02C43.903 25.6945 38.0035 26.369 32.1039 27.0435C29.9022 27.2952 28 28.74 28 31.1268C28 33.1387 29.8875 35.4636 32.1039 35.2102C38.0035 34.5357 43.903 33.8613 49.8026 33.1868L45.6987 29.1034C46.4916 48.7735 47.5206 68.4335 48.7869 88.0791L51.7998 84.1416C46.1594 85.0301 40.4157 85.0612 34.744 84.4602L38.8479 88.5436C38.1075 70.0131 37.367 51.4827 36.6266 32.9522C36.4174 27.7146 28.2085 27.6879 28.4189 32.9522V32.9522Z" fill="#01010C"/>
<path d="M58.4007 9.48534C59.1416 35.7908 59.8826 62.0962 60.6235 88.4016C60.6692 90.0239 61.8541 92.0824 63.6386 92.3506C70.4865 93.38 77.2132 93.2038 83.9818 91.6913C85.6646 91.3152 87.0752 89.4642 86.9969 87.7422C85.7284 59.8447 84.6988 31.9367 83.9065 4.02167C83.8249 1.14363 81.3608 -0.357561 78.708 0.0726583C72.8042 1.03012 66.9004 1.98759 60.9966 2.94505C58.8057 3.30038 57.5859 6.01476 58.1282 7.98276C58.7682 10.305 60.9827 11.1994 63.1801 10.8431C69.0839 9.88562 74.9877 8.92815 80.8915 7.97069L75.6929 4.02167C76.4852 31.9367 77.5148 59.8447 78.7833 87.7422L81.7983 83.7932C76.5677 84.9621 71.1355 85.2513 65.8221 84.4526L68.8372 88.4016C68.0962 62.0962 67.3553 35.7908 66.6143 9.48534C66.4662 4.22562 58.252 4.20413 58.4007 9.48534Z" fill="#01010C"/>
</svg>
