<svg width="18" height="18" viewBox="0 0 18 18" fill="none" xmlns="http://www.w3.org/2000/svg">
<path d="M17.7306 11.1773C16.5284 15.9988 11.6446 18.9331 6.82201 17.7307C2.00144 16.5287 -0.933157 11.645 0.269596 6.82386C1.47122 2.00182 6.35509 -0.932739 11.1762 0.269324C15.9985 1.47139 18.9328 6.35557 17.7306 11.1773Z" fill="black"/>
<path fill-rule="evenodd" clip-rule="evenodd" d="M12.9671 7.71807C13.1463 6.52051 12.2345 5.87673 10.9877 5.44726L11.3921 3.82501L10.4047 3.57892L10.0109 5.15842C9.75133 5.09373 9.48471 5.0327 9.21977 4.97223L9.61633 3.38232L8.62942 3.13623L8.22471 4.75792C8.00983 4.70898 7.79889 4.66061 7.59414 4.6097L7.59527 4.60464L6.23346 4.26461L5.97077 5.31929C5.97077 5.31929 6.70342 5.4872 6.68796 5.49761C7.08789 5.59745 7.16017 5.86211 7.14808 6.07192L6.68739 7.92001C6.71496 7.92704 6.75067 7.93717 6.79005 7.95292L6.75659 7.94456C6.73369 7.93882 6.70995 7.93287 6.68571 7.92704L6.03996 10.5159C5.99102 10.6374 5.86699 10.8197 5.58742 10.7505C5.59727 10.7649 4.86967 10.5714 4.86967 10.5714L4.37946 11.7017L5.66449 12.022C5.80799 12.058 5.94976 12.095 6.09006 12.1316L6.09032 12.1316C6.18366 12.156 6.27635 12.1801 6.36846 12.2037L5.9598 13.8445L6.94614 14.0906L7.35086 12.4673C7.6203 12.5404 7.88186 12.6079 8.1378 12.6714L7.73449 14.2872L8.72196 14.5333L9.13061 12.8956C10.8145 13.2143 12.0806 13.0857 12.6136 11.5628C13.0431 10.3365 12.5922 9.62917 11.7063 9.16792C12.3515 9.01914 12.8375 8.59473 12.9671 7.71807ZM10.711 10.8819C10.431 12.0069 8.67001 11.5418 7.86428 11.329C7.79178 11.3098 7.72702 11.2927 7.67177 11.279L8.21402 9.1052C8.28129 9.12199 8.36348 9.14043 8.45658 9.16132L8.45662 9.16133C9.28999 9.34833 10.9978 9.73155 10.711 10.8819ZM8.62406 8.15255C9.29584 8.33182 10.7612 8.72287 11.0164 7.70036C11.277 6.65447 9.85287 6.3392 9.15733 6.18522C9.07909 6.1679 9.01007 6.15262 8.95371 6.13857L8.46208 8.11014C8.50852 8.12171 8.56301 8.13625 8.62406 8.15255Z" fill="white"/>
</svg>
