<?xml version="1.0" encoding="UTF-8"?>
<svg width="16px" height="16px" viewBox="0 0 16 16" version="1.1" xmlns="http://www.w3.org/2000/svg" xmlns:xlink="http://www.w3.org/1999/xlink">
    <title>18x18</title>
    <g id="18x18" stroke="none" stroke-width="1" fill="none" fill-rule="evenodd">
        <g id="Group" transform="translate(1.330000, 1.350000)" fill="#000000" fill-rule="nonzero">
            <path d="M9.74995,11.06245 C10.02085,10.79165 10.33335,10.65625 10.68755,10.65625 C11.04165,10.65625 11.34375,10.79165 11.59375,11.06245 C11.86455,11.33335 11.99995,11.64585 11.99995,12.00005 C11.99995,12.35415 11.86455,12.66665 11.59375,12.93745 C11.34375,13.18745 11.04165,13.31245 10.68755,13.31245 C10.33335,13.31245 10.02085,13.18745 9.74995,12.93745 C9.47915,12.66665 9.34375,12.35415 9.34375,12.00005 C9.34375,11.64585 9.47915,11.33335 9.74995,11.06245 Z M0,0 L2.1875,0 L2.8125,1.3125 L12.68755,1.3125 C12.87495,1.3125 13.03125,1.38542 13.15625,1.53125 C13.28125,1.65625 13.34375,1.8125 13.34375,2 C13.34375,2.02083 13.31255,2.125 13.24995,2.3125 L10.87495,6.625 C10.62495,7.08333 10.23955,7.3125 9.71875,7.3125 L4.75,7.3125 L4.15625,8.40625 L4.125,8.5 C4.125,8.60417 4.17708,8.65625 4.28125,8.65625 L11.99995,8.65625 L11.99995,10.00005 L4,10.00005 C3.64583,10.00005 3.33333,9.86455 3.0625,9.59375 C2.8125,9.32292 2.6875,9.01042 2.6875,8.65625 C2.6875,8.44792 2.73958,8.23958 2.84375,8.03125 L3.75,6.375 L1.34375,1.3125 L0,1.3125 L0,0 Z M3.0625,11.06245 C3.33333,10.79165 3.64583,10.65625 4,10.65625 C4.35417,10.65625 4.66667,10.79165 4.9375,11.06245 C5.20833,11.33335 5.34375,11.64585 5.34375,12.00005 C5.34375,12.35415 5.20833,12.66665 4.9375,12.93745 C4.66667,13.18745 4.35417,13.31245 4,13.31245 C3.64583,13.31245 3.33333,13.18745 3.0625,12.93745 C2.8125,12.66665 2.6875,12.35415 2.6875,12.00005 C2.6875,11.64585 2.8125,11.33335 3.0625,11.06245 Z" id="Shape"></path>
        </g>
    </g>
</svg>