<?xml version="1.0" encoding="UTF-8"?>
<svg width="18px" height="18px" viewBox="0 0 18 18" version="1.1" xmlns="http://www.w3.org/2000/svg" xmlns:xlink="http://www.w3.org/1999/xlink">
    <title>18x18</title>
    <g id="18x18" stroke="none" stroke-width="1" fill="none" fill-rule="evenodd">
        <g id="Group" transform="translate(2.250000, 2.250000)" fill="#000000" fill-rule="nonzero">
            <path d="M10.5117,10.5117 L10.5117,7.48828 L9,7.48828 L9,10.5117 L10.5117,10.5117 Z M7.48828,10.5117 L7.48828,2.98828 L6.01172,2.98828 L6.01172,10.5117 L7.48828,10.5117 Z M4.5,10.5117 L4.5,5.23828 L2.98828,5.23828 L2.98828,10.5117 L4.5,10.5117 Z M11.9883,0 C12.3867,0 12.7383,0.152344 13.043,0.457031 C13.3477,0.76172 13.5,1.11328 13.5,1.51172 L13.5,11.9883 C13.5,12.3867 13.3477,12.7383 13.043,13.043 C12.7383,13.3477 12.3867,13.5 11.9883,13.5 L1.51172,13.5 C1.11328,13.5 0.76172,13.3477 0.45703,13.043 C0.152344,12.7383 0,12.3867 0,11.9883 L0,1.51172 C0,1.11328 0.152344,0.76172 0.45703,0.457031 C0.76172,0.152344 1.11328,0 1.51172,0 L11.9883,0 Z" id="Shape"></path>
        </g>
    </g>
</svg>