<?xml version="1.0" encoding="UTF-8"?>
<svg width="18px" height="18px" viewBox="0 0 18 18" version="1.1" xmlns="http://www.w3.org/2000/svg" xmlns:xlink="http://www.w3.org/1999/xlink">
    <title>18x18</title>
    <g id="18x18" stroke="none" stroke-width="1" fill="none" fill-rule="evenodd">
        <g id="Group" transform="translate(1.510000, 1.460000)" fill="#000000" fill-rule="nonzero">
            <path d="M3.7617212,12.05855 C4.7929712,13.08985 6.0351612,13.60545 7.4882812,13.60545 C8.9414012,13.60545 10.1718812,13.08985 11.1796812,12.05855 C12.2109812,11.02735 12.7265812,9.78515 12.7265812,8.33203 C12.7265812,6.87891 12.2109812,5.64844 11.1796812,4.64063 C10.1718812,3.60938 8.9414012,3.09375 7.4882812,3.09375 C6.0351612,3.09375 4.7929712,3.60938 3.7617212,4.64063 C2.7539012,5.64844 2.2500012,6.87891 2.2500012,8.33203 C2.2500012,9.78515 2.7539012,11.02735 3.7617212,12.05855 Z M2.7070312,3.58594 C4.0195312,2.25 5.6132812,1.58203 7.4882812,1.58203 C9.3632812,1.58203 10.9570812,2.25 12.2694812,3.58594 C13.5820812,4.89844 14.2382812,6.48047 14.2382812,8.33203 C14.2382812,10.18355 13.5820812,11.77735 12.2694812,13.11325 C10.9570812,14.42575 9.3632812,15.08205 7.4882812,15.08205 C5.6132812,15.08205 4.0195312,14.42575 2.7070312,13.11325 C1.3945312,11.77735 0.7382812,10.18355 0.7382812,8.33203 C0.7382812,6.48047 1.3945312,4.89844 2.7070312,3.58594 Z M7.8750012,4.60547 L7.8750012,8.54297 L10.8632812,10.30075 L10.3007812,11.21485 L6.7500012,9.10547 L6.7500012,4.60547 L7.8750012,4.60547 Z M4.3945312,1.125 L0.9492192,4.00781 L0,2.88281 L3.4453112,0 L4.3945312,1.125 Z M14.9765812,2.88281 L14.0273812,4.04297 L10.5820812,1.125 L11.5312812,0 L14.9765812,2.88281 Z" id="Shape"></path>
        </g>
    </g>
</svg>