<?xml version="1.0" encoding="UTF-8"?>
<svg width="16px" height="16px" viewBox="0 0 16 16" version="1.1" xmlns="http://www.w3.org/2000/svg" xmlns:xlink="http://www.w3.org/1999/xlink">
    <title>18x18</title>
    <g id="18x18" stroke="none" stroke-width="1" fill="none" fill-rule="evenodd">
        <g id="Group" transform="translate(0.000000, 2.650000)" fill="#000000" fill-rule="nonzero">
            <path d="M12.9062,4.03125 C13.7604,4.09375 14.4896,4.44792 15.0938,5.09375 C15.6979,5.71875 16,6.46875 16,7.34375 C16,8.26042 15.6667,9.05208 15,9.71875 C14.3542,10.36455 13.5729,10.68755 12.6562,10.68755 L4,10.68755 C2.89583,10.68755 1.94792,10.30205 1.15625,9.53125 C0.385417,8.73958 0,7.79167 0,6.6875 C0,5.70833 0.34375,4.83333 1.03125,4.0625 C1.73958,3.27083 2.58333,2.82292 3.5625,2.71875 C4,1.90625 4.61458,1.25 5.40625,0.75 C6.19792,0.25 7.0625,0 8,0 C9.20833,0 10.2708,0.38542 11.1875,1.15625 C12.1042,1.90625 12.6771,2.86458 12.9062,4.03125 Z" id="Path"></path>
        </g>
    </g>
</svg>