<svg width="16" height="17" viewBox="0 0 16 17" fill="none" xmlns="http://www.w3.org/2000/svg">
<path fill-rule="evenodd" clip-rule="evenodd" d="M16 8.5C16 12.9183 12.4183 16.5 8 16.5C3.58172 16.5 0 12.9183 0 8.5C0 4.08172 3.58172 0.5 8 0.5C12.4183 0.5 16 4.08172 16 8.5ZM12.6667 8.5C12.6667 11.0773 10.5773 13.1667 8 13.1667C5.42267 13.1667 3.33333 11.0773 3.33333 8.5C3.33333 5.92267 5.42267 3.83333 8 3.83333C10.5773 3.83333 12.6667 5.92267 12.6667 8.5ZM7.16667 7C6.79847 7 6.5 7.29847 6.5 7.66667V9.33333C6.5 9.70153 6.79847 10 7.16667 10H8.83333C9.20153 10 9.5 9.70153 9.5 9.33333V7.66667C9.5 7.29847 9.20153 7 8.83333 7H7.16667Z" fill="black"/>
</svg>
