<?xml version="1.0" encoding="UTF-8"?>
<svg width="16px" height="16px" viewBox="0 0 16 16" version="1.1" xmlns="http://www.w3.org/2000/svg" xmlns:xlink="http://www.w3.org/1999/xlink">
    <title>18x18</title>
    <g id="18x18" stroke="none" stroke-width="1" fill="none" fill-rule="evenodd">
        <g id="Group" transform="translate(1.350000, 2.650000)" fill="#000000" fill-rule="nonzero">
            <path d="M12.00005,2.6875 L12.00005,1.34375 L1.3125,1.34375 L1.3125,2.6875 L12.00005,2.6875 Z M12.00005,9.34375 L12.00005,5.34375 L1.3125,5.34375 L1.3125,9.34375 L12.00005,9.34375 Z M12.00005,0 C12.37505,0 12.68745,0.135417 12.93745,0.40625 C13.18745,0.65625 13.31245,0.96875 13.31245,1.34375 L13.31245,9.34375 C13.31245,9.71875 13.18745,10.04165 12.93745,10.31255 C12.68745,10.56255 12.37505,10.68755 12.00005,10.68755 L1.3125,10.68755 C0.9375,10.68755 0.625,10.56255 0.375,10.31255 C0.125,10.04165 0,9.71875 0,9.34375 L0,1.34375 C0,0.96875 0.125,0.65625 0.375,0.40625 C0.625,0.135417 0.9375,0 1.3125,0 L12.00005,0 Z" id="Shape"></path>
        </g>
    </g>
</svg>