<?xml version="1.0" encoding="UTF-8"?>
<svg width="16px" height="16px" viewBox="0 0 16 16" version="1.1" xmlns="http://www.w3.org/2000/svg" xmlns:xlink="http://www.w3.org/1999/xlink">
    <title>18x18</title>
    <g id="18x18" stroke="none" stroke-width="1" fill="none" fill-rule="evenodd">
        <g id="Group" transform="translate(2.000000, 2.000000)" fill="#000000" fill-rule="nonzero">
            <path d="M10.6562,3.34375 L10.6562,2.65625 L9.34375,2.65625 L9.34375,5.21875 C10.2188,4.90625 10.6562,4.28125 10.6562,3.34375 Z M2.65625,5.21875 L2.65625,2.65625 L1.34375,2.65625 L1.34375,3.34375 C1.34375,4.28125 1.78125,4.90625 2.65625,5.21875 Z M10.6562,1.34375 C11.0104,1.34375 11.3229,1.47917 11.5938,1.75 C11.8646,2 12,2.30208 12,2.65625 L12,3.34375 C12,4.17708 11.7188,4.90625 11.1562,5.53125 C10.5938,6.15625 9.89583,6.52083 9.0625,6.625 C8.875,7.08333 8.54167,7.5 8.0625,7.875 C7.60417,8.25 7.13542,8.48958 6.65625,8.59375 L6.65625,10.6562 L9.34375,10.6562 L9.34375,12 L2.65625,12 L2.65625,10.6562 L5.34375,10.6562 L5.34375,8.59375 C4.86458,8.48958 4.38542,8.25 3.90625,7.875 C3.44792,7.5 3.125,7.08333 2.9375,6.625 C2.10417,6.52083 1.40625,6.15625 0.84375,5.53125 C0.28125,4.90625 0,4.17708 0,3.34375 L0,2.65625 C0,2.30208 0.135417,2 0.40625,1.75 C0.677083,1.47917 0.989583,1.34375 1.34375,1.34375 L2.65625,1.34375 L2.65625,0 L9.34375,0 L9.34375,1.34375 L10.6562,1.34375 Z" id="Shape"></path>
        </g>
    </g>
</svg>