<?xml version="1.0" encoding="UTF-8"?>
<svg width="16px" height="16px" viewBox="0 0 16 16" version="1.1" xmlns="http://www.w3.org/2000/svg" xmlns:xlink="http://www.w3.org/1999/xlink">
    <title>18x18</title>
    <g id="18x18" stroke="none" stroke-width="1" fill="none" fill-rule="evenodd">
        <g id="Group" transform="translate(2.650000, 1.350000)" fill="#000000" fill-rule="nonzero">
            <path d="M6,4.65625 L9.68755,4.65625 L6,1 L6,4.65625 Z M8,8 L8,6.65625 L2.6875,6.65625 L2.6875,8 L8,8 Z M8,10.65625 L8,9.3125 L2.6875,9.3125 L2.6875,10.65625 L8,10.65625 Z M6.6875,0 L10.68755,4 L10.68755,12.00005 C10.68755,12.35415 10.55205,12.66665 10.28125,12.93745 C10.01045,13.18745 9.69795,13.31245 9.34375,13.31245 L1.34375,13.31245 C0.98958,13.31245 0.67708,13.18745 0.40625,12.93745 C0.135417,12.66665 0,12.35415 0,12.00005 L0.03125,1.3125 C0.03125,0.95833 0.15625,0.65625 0.40625,0.40625 C0.67708,0.135417 0.98958,0 1.34375,0 L6.6875,0 Z" id="Shape"></path>
        </g>
    </g>
</svg>