<svg width="18" height="18" viewBox="0 0 18 18" fill="none" xmlns="http://www.w3.org/2000/svg">
<circle cx="9" cy="9" r="9" fill="#363636"/>
<circle cx="9.00001" cy="8.9998" r="8.71171" fill="#363636"/>
<circle cx="8.99999" cy="8.99984" r="8.52816" fill="black"/>
<path fill-rule="evenodd" clip-rule="evenodd" d="M13.95 6.78641C13.0399 4.43594 10.7898 4.00049 10.7898 4.00049H4.3704L4.39516 6.39463H5.6736V11.7408H4.3703V14.1306H10.6121C12.1164 14.1306 13.3223 12.6189 13.3223 12.6189C15.2533 9.87818 13.9499 6.78641 13.9499 6.78641H13.95ZM10.6456 11.0082C10.6456 11.0082 10.156 11.7146 9.62332 11.7146H8.55772L8.53248 6.40049H9.9C9.9 6.40049 10.5336 6.53297 10.9763 7.78682C10.9763 7.78682 11.5631 9.58202 10.6456 11.0082V11.0082Z" fill="white"/>
</svg>
