<?xml version="1.0" encoding="UTF-8"?>
<svg width="16px" height="16px" viewBox="0 0 16 16" version="1.1" xmlns="http://www.w3.org/2000/svg" xmlns:xlink="http://www.w3.org/1999/xlink">
    <title>18x18</title>
    <g id="18x18" stroke="none" stroke-width="1" fill="none" fill-rule="evenodd">
        <g id="Group" transform="translate(4.000000, 3.000000)" fill="#000000" fill-rule="nonzero">
            <path d="M0,6 L1.34375,6 C1.34375,6.72917 1.60417,7.35417 2.125,7.875 C2.64583,8.39583 3.27083,8.65625 4,8.65625 C4.72917,8.65625 5.35417,8.39583 5.875,7.875 C6.39583,7.35417 6.65625,6.72917 6.65625,6 L8,6 C8,7.10417 7.60417,8.05208 6.8125,8.84375 C6.04167,9.61458 5.10417,10.00005 4,10.00005 C2.89583,10.00005 1.94792,9.61458 1.15625,8.84375 C0.385417,8.05208 0,7.10417 0,6 Z M3.34375,0 L4.65625,0 L4.65625,3.71875 L7,3.71875 L4,6.71875 L1,3.71875 L3.34375,3.71875 L3.34375,0 Z" id="Shape"></path>
        </g>
    </g>
</svg>