<svg width="32" height="32" viewBox="0 0 32 32" fill="none" xmlns="http://www.w3.org/2000/svg">
<rect width="32" height="32" fill="white"/>
<path fill-rule="evenodd" clip-rule="evenodd" d="M16 32C7.175 32 0 24.8291 0 16.0063C0 7.1709 7.175 0 16 0C24.825 0 32 7.1709 32 15.9937C32 24.8166 24.825 32 16 32ZM29.4875 18.1838C29.025 18.0336 25.2625 16.9198 20.975 17.5956C22.7625 22.5014 23.4875 26.5061 23.625 27.332C26.7 25.2671 28.8875 21.9883 29.4875 18.1838ZM18.425 18.2339C20.3375 23.2147 21.1375 27.3946 21.3375 28.596C19.7 29.2968 17.8875 29.6848 16 29.6723C12.8375 29.6723 9.925 28.596 7.6125 26.7939C7.8625 26.2933 10.625 20.9496 18.3375 18.2589C18.3625 18.2589 18.4 18.2464 18.425 18.2339ZM5.85 25.1545C6.1625 24.6289 9.9125 18.4216 16.9625 16.1314C17.1059 16.0801 17.2578 16.0372 17.4042 15.9959L17.5 15.9687C17.1625 15.1928 16.7875 14.4169 16.3875 13.6535C9.5625 15.6934 2.9375 15.6058 2.3375 15.5933C2.3375 15.6621 2.33438 15.7309 2.33125 15.7998L2.33125 15.7998C2.32812 15.8686 2.325 15.9374 2.325 16.0063C2.3375 19.5229 3.6625 22.7266 5.85 25.1545ZM15.2625 11.551C8.8625 13.253 3.2375 13.228 2.625 13.2155C3.5125 8.98553 6.3625 5.45639 10.2 3.65428L10.2417 3.71237C10.7125 4.36743 13.0751 7.6551 15.2625 11.551ZM12.8 2.7282C13.175 3.22878 15.6625 6.60774 17.9 10.7251C22.7625 8.89793 24.8125 6.1447 25.0625 5.79429C22.65 3.65428 19.475 2.35276 16 2.35276C14.9 2.35276 13.825 2.49042 12.8 2.7282ZM18.95 12.765C24 10.7 26.2875 7.75909 26.575 7.37114C28.4875 9.69887 29.6375 12.6648 29.675 15.8811C29.6637 15.8789 29.6499 15.8762 29.6335 15.873C28.9986 15.748 24.5984 14.8819 20.1625 15.4431C20.0625 15.2179 19.9626 14.9802 19.8626 14.7425L19.8625 14.7423C19.575 14.079 19.2625 13.4157 18.95 12.765Z" fill="black"/>
</svg>
