<?xml version="1.0" encoding="UTF-8"?>
<svg width="18px" height="18px" viewBox="0 0 18 18" version="1.1" xmlns="http://www.w3.org/2000/svg" xmlns:xlink="http://www.w3.org/1999/xlink">
    <title>18x18</title>
    <g id="18x18" stroke="none" stroke-width="1" fill="none" fill-rule="evenodd">
        <g id="Group" transform="translate(0.740000, 1.510000)" fill="#000000" fill-rule="nonzero">
            <path d="M15.011719,5.976561 L12.023419,5.976561 C11.601519,5.976561 11.214819,6.082031 10.863319,6.292971 C10.535119,6.503901 10.265619,6.785161 10.054719,7.136721 C9.867219,7.464841 9.773419,7.828121 9.773419,8.226561 L9.773419,11.988281 L1.511719,11.988281 C1.089839,11.988281 0.726563,11.847681 0.421875,11.566381 C0.140625,11.261681 -6.38378239e-16,10.898481 -6.38378239e-16,10.476581 L0.035157,1.476561 C0.035157,1.078121 0.175781,0.738281 0.457031,0.457031 C0.738281,0.152343 1.089839,6.66133815e-16 1.511719,6.66133815e-16 L13.500019,6.66133815e-16 C13.921919,6.66133815e-16 14.273419,0.152343 14.554719,0.457031 C14.859419,0.738281 15.011719,1.078121 15.011719,1.476561 L15.011719,5.976561 Z M7.523439,6.750001 L13.500019,2.988281 L13.500019,1.476561 L7.523439,5.238281 L1.511719,1.476561 L1.511719,2.988281 L7.523439,6.750001 Z M15.011719,9.000001 L16.523419,9.000001 L16.523419,11.988281 C16.523419,12.550781 16.382819,13.054681 16.101519,13.499981 C15.843719,13.945281 15.480519,14.308581 15.011719,14.589881 C14.566419,14.847681 14.062519,14.976581 13.500019,14.976581 C12.960919,14.976581 12.457019,14.847681 11.988319,14.589881 C11.542919,14.308581 11.179719,13.945281 10.898419,13.499981 C10.640619,13.054681 10.511719,12.550781 10.511719,11.988281 L10.511719,8.613281 C10.511719,8.097661 10.687519,7.664061 11.039019,7.312501 C11.414019,6.937501 11.859419,6.750001 12.375019,6.750001 C12.890619,6.750001 13.335919,6.937501 13.710919,7.312501 C14.085919,7.664061 14.273419,8.097661 14.273419,8.613281 L14.273419,11.988281 L12.761719,11.988281 L12.761719,8.613281 C12.761719,8.519531 12.726519,8.437501 12.656219,8.367191 C12.585919,8.273441 12.492219,8.226561 12.375019,8.226561 C12.281219,8.226561 12.199219,8.273441 12.128919,8.367191 C12.058619,8.437501 12.023419,8.519531 12.023419,8.613281 L12.023419,11.988281 C12.023419,12.410181 12.164019,12.773481 12.445319,13.078081 C12.750019,13.359381 13.101519,13.499981 13.500019,13.499981 C13.921919,13.499981 14.273419,13.359381 14.554719,13.078081 C14.859419,12.773481 15.011719,12.410181 15.011719,11.988281 L15.011719,9.000001 Z" id="Shape"></path>
        </g>
    </g>
</svg>