<svg width="23" height="22" viewBox="0 0 23 22" fill="none" xmlns="http://www.w3.org/2000/svg">
<rect width="22" height="22" transform="translate(0.174194)" fill="white"/>
<path d="M7.96586 22.0001C9.98986 22.0001 11.6325 20.3574 11.6325 18.3334V14.6667H7.96586C5.94186 14.6667 4.29919 16.3094 4.29919 18.3334C4.29919 20.3574 5.94186 22.0001 7.96586 22.0001Z" fill="black"/>
<path d="M4.29919 10.9999C4.29919 8.97592 5.94186 7.33325 7.96586 7.33325H11.6325V14.6666H7.96586C5.94186 14.6666 4.29919 13.0239 4.29919 10.9999Z" fill="black"/>
<path d="M4.29919 3.66667C4.29919 1.64267 5.94186 0 7.96586 0H11.6325V7.33333H7.96586C5.94186 7.33333 4.29919 5.69067 4.29919 3.66667Z" fill="black"/>
<path d="M11.6325 0H15.2992C17.3232 0 18.9658 1.64267 18.9658 3.66667C18.9658 5.69067 17.3232 7.33333 15.2992 7.33333H11.6325V0Z" fill="black"/>
<path d="M18.9658 10.9999C18.9658 13.0239 17.3232 14.6666 15.2992 14.6666C13.2752 14.6666 11.6325 13.0239 11.6325 10.9999C11.6325 8.97592 13.2752 7.33325 15.2992 7.33325C17.3232 7.33325 18.9658 8.97592 18.9658 10.9999Z" fill="#2F2F2F"/>
</svg>
