<svg width="32" height="32" viewBox="0 0 32 32" fill="none" xmlns="http://www.w3.org/2000/svg">
<path d="M15.6904 10.619L14.7813 9.7099C14.5401 9.46876 14.2131 9.33331 13.8721 9.33331H7.97611C7.62106 9.33331 7.33325 9.62112 7.33325 9.97617V21.9762C7.33325 22.0945 7.42919 22.1905 7.54754 22.1905H25.119C25.2373 22.1905 25.3333 22.0945 25.3333 21.9762V11.2619C25.3333 10.9068 25.0454 10.619 24.6904 10.619H15.6904Z" fill="white" fill-opacity="0.75"/>
<path d="M15.6904 10.619L14.7813 11.5281C14.5401 11.7693 14.2131 11.9047 13.8721 11.9047H7.33325V21.9762C7.33325 22.0945 7.42919 22.1904 7.54754 22.1904H25.119C25.2373 22.1904 25.3333 22.0945 25.3333 21.9762V11.2619C25.3333 10.9068 25.0454 10.619 24.6904 10.619H15.6904Z" fill="white"/>
<path opacity="0.4" d="M7.33325 11.9047V12.119H13.8905C14.2883 12.119 14.6699 11.961 14.9512 11.6797L16.0118 10.619H15.6904L14.7813 11.5281C14.5401 11.7693 14.2131 11.9047 13.8721 11.9047H7.33325Z" fill="white"/>
<path d="M25.119 22.1905H7.54754C7.42919 22.1905 7.33325 22.0945 7.33325 21.9762V21.9762H25.3333V21.9762C25.3333 22.0945 25.2373 22.1905 25.119 22.1905Z" fill="#AE7AFF"/>
<path d="M25.119 22.1905H7.54754C7.42919 22.1905 7.33325 22.0945 7.33325 21.9762V21.9762H25.3333V21.9762C25.3333 22.0945 25.2373 22.1905 25.119 22.1905Z" fill="black" fill-opacity="0.2"/>
</svg>
