<svg width="72" height="110" viewBox="0 0 72 110" fill="none" xmlns="http://www.w3.org/2000/svg">
<path d="M33.8004 50.0776C27.1947 52.8911 22.0859 59.146 14.8046 60.2513L20.9506 66.4162C21.5985 62.1469 22.2463 57.8776 22.8942 53.6083C23.1984 51.6038 23.5026 49.5991 23.8122 47.5957C24.17 45.2805 23.7033 43.9211 22.5296 41.9882C18.5803 35.484 13.3964 30.0549 7.33147 25.5165L4.80976 34.8555C8.84253 34.7656 12.8846 34.3076 16.8292 33.4527C18.8777 33.0088 20.903 32.4474 22.8864 31.7676C24.7827 31.1177 27.0425 30.5251 28.5165 29.1385C29.8268 27.906 30.3155 26.2809 30.9705 24.6521L33.3786 18.664L38.3801 6.22721L29.2482 7.42438C33.3427 13.0241 36.7746 19.0947 39.2324 25.594C40.0236 27.6862 41.7032 29.2734 44.0502 29.2734C46.1575 29.2734 48.4072 27.7291 48.868 25.594L48.9783 25.083L44.1605 28.7623C51.7802 29.6527 59.3999 30.543 67.0196 31.4334L63.4867 22.8781C60.5209 26.021 57.555 29.164 54.5891 32.3069C53.1062 33.8784 51.6232 35.4499 50.1403 37.0213C48.9435 38.2896 47.5414 39.4887 47.0965 41.2445C46.1288 45.0643 46.937 49.9739 47.4226 53.8268C47.9506 58.0159 48.7678 62.1164 49.973 66.1636L56.119 59.9987C52.9294 58.9187 49.9015 57.5571 46.9799 55.8737C44.6796 54.5483 41.5259 52.9837 39.8551 50.8613C38.1814 48.7354 34.5403 49.1049 32.7893 50.8613C30.6962 52.9608 31.1113 55.8174 32.7893 57.9488C34.9008 60.6308 39.0215 62.8488 41.9365 64.5285C45.5842 66.6303 49.4797 68.3153 53.4626 69.6638C57.0778 70.8879 60.6592 67.0268 59.6086 63.499C58.5762 60.0322 57.7371 56.49 57.3012 52.8943C57.0753 51.0306 56.9493 49.1498 56.8912 47.2736C56.867 46.491 56.8581 45.708 56.8613 44.9251C56.8633 44.4484 56.9171 43.1411 56.7799 43.7106L55.495 45.9221C60.5142 40.6032 65.5334 35.2844 70.5525 29.9655C73.766 26.5602 71.2045 21.8992 67.0197 21.4102C59.3999 20.5198 51.7802 19.6294 44.1605 18.7391C42.1127 18.4998 39.7659 20.4574 39.3427 22.4184L39.2324 22.9294H48.868C46.0945 15.5953 42.5053 8.69584 37.8765 2.36547C35.2035 -1.29011 30.4059 -0.568283 28.7446 3.56264C26.0278 10.3184 23.3109 17.0742 20.594 23.83L21.8789 21.6186L21.387 22.1155L23.5917 20.8266C17.5648 23.2886 11.3189 24.6872 4.80982 24.8323C-0.494077 24.9505 -1.52692 31.3164 2.28811 34.1713C7.40891 38.0032 11.5711 42.9516 14.7433 48.4891L14.2397 44.6274C12.9374 50.9131 12.2784 57.4037 11.3151 63.7516C10.7066 67.7617 13.4663 70.5229 17.4611 69.9165C25.765 68.656 31.386 61.9089 38.8439 58.7324C41.3282 57.6743 41.8749 53.9997 40.6363 51.8756C39.1324 49.2965 36.2946 49.0154 33.8005 50.0777L33.8004 50.0776Z" fill="#01010C"/>
<path d="M23.5216 59.7007C19.05 70.8746 20.5791 84.6344 27.6831 94.4118C34.8689 104.302 46.6003 110.284 58.8711 109.99C65.3309 109.834 65.3551 99.7783 58.8711 99.9341C50.0542 100.146 41.1326 96.0901 35.9741 88.786C30.5002 81.0354 29.7328 71.0827 33.218 62.3738C34.2272 59.8519 32.1162 56.8513 29.7064 56.1891C26.841 55.4018 24.5345 57.1695 23.5216 59.7007L23.5216 59.7007Z" fill="#01010C"/>
<path d="M37.146 60.1474C33.9319 68.1788 35.0739 78.1985 40.1659 85.2262C45.4225 92.481 53.9505 96.9325 62.9679 96.7158C65.5951 96.6527 68.1193 94.4485 67.9957 91.6881C67.8761 89.0182 65.7847 86.5927 62.9679 86.6604C62.1156 86.6809 61.2672 86.6661 60.4175 86.5914C60.0094 86.5556 59.4137 86.4326 60.1439 86.5688C59.6868 86.4835 59.2323 86.403 58.779 86.2987C58.0255 86.1252 57.2802 85.9111 56.5492 85.6591C56.481 85.6356 55.0801 85.0933 56.0203 85.4905C55.664 85.34 55.3153 85.1693 54.9696 84.9962C54.2081 84.6149 53.4682 84.1916 52.7538 83.7278C52.4291 83.517 52.1132 83.294 51.7982 83.0692C51.359 82.7557 52.2091 83.4511 51.5368 82.8547C50.8989 82.2887 50.2724 81.7214 49.6892 81.0977C49.425 80.8151 49.1718 80.5238 48.9198 80.2303C47.9782 79.1338 49.3775 80.9793 48.5792 79.7724C48.1421 79.1116 47.7161 78.4502 47.3416 77.7509C47.1176 77.3327 46.9114 76.9071 46.7119 76.4767C47.0121 77.1244 46.7049 76.4485 46.5931 76.1419C46.2951 75.3249 46.0454 74.4912 45.8441 73.6452C45.7525 73.2605 45.673 72.8731 45.6021 72.4841C45.5343 72.1122 45.4724 71.4363 45.5424 72.1773C45.4605 71.3095 45.4068 70.444 45.4135 69.5719C45.4165 69.1766 45.4282 68.7813 45.4524 68.3867C45.4575 68.3039 45.6035 66.7645 45.4676 67.8374C45.6858 66.1158 46.1996 64.4267 46.8423 62.8206C47.822 60.3725 45.7749 57.1926 43.3307 56.6359C40.4253 55.9741 38.195 57.526 37.1459 60.1475L37.146 60.1474Z" fill="#01010C"/>
</svg>
