<svg width="32" height="32" viewBox="0 0 32 32" fill="none" xmlns="http://www.w3.org/2000/svg">
<mask id="mask0_0_3638" style="mask-type:luminance" maskUnits="userSpaceOnUse" x="2" y="2" width="28" height="28">
<path fill-rule="evenodd" clip-rule="evenodd" d="M29.6744 13.4545H16.3256V18.8636H24.0093C23.293 22.3 20.2977 24.2727 16.3256 24.2727C11.6372 24.2727 7.86047 20.5818 7.86047 16C7.86047 11.4182 11.6372 7.72727 16.3256 7.72727C18.3442 7.72727 20.1674 8.42727 21.6 9.57273L25.7674 5.5C23.2279 3.33636 19.9721 2 16.3256 2C8.3814 2 2 8.23636 2 16C2 23.7636 8.3814 30 16.3256 30C23.4884 30 30 24.9091 30 16C30 15.1727 29.8698 14.2818 29.6744 13.4545Z" fill="white"/>
</mask>
<g mask="url(#mask0_0_3638)">
<path d="M0.697754 24.2727V7.72729L11.7675 16L0.697754 24.2727Z" fill="black"/>
</g>
<mask id="mask1_0_3638" style="mask-type:luminance" maskUnits="userSpaceOnUse" x="2" y="2" width="28" height="28">
<path fill-rule="evenodd" clip-rule="evenodd" d="M29.6744 13.4545H16.3256V18.8636H24.0093C23.293 22.3 20.2977 24.2727 16.3256 24.2727C11.6372 24.2727 7.86047 20.5818 7.86047 16C7.86047 11.4182 11.6372 7.72727 16.3256 7.72727C18.3442 7.72727 20.1674 8.42727 21.6 9.57273L25.7674 5.5C23.2279 3.33636 19.9721 2 16.3256 2C8.3814 2 2 8.23636 2 16C2 23.7636 8.3814 30 16.3256 30C23.4884 30 30 24.9091 30 16C30 15.1727 29.8698 14.2818 29.6744 13.4545Z" fill="white"/>
</mask>
<g mask="url(#mask1_0_3638)">
<path d="M0.697754 24.2727L20.2326 9.63639L25.3768 10.2727L31.9536 0.727295V31.2727H0.697754V24.2727Z" fill="black"/>
</g>
<mask id="mask2_0_3638" style="mask-type:luminance" maskUnits="userSpaceOnUse" x="2" y="2" width="28" height="28">
<path fill-rule="evenodd" clip-rule="evenodd" d="M29.6744 13.4545H16.3256V18.8636H24.0093C23.293 22.3 20.2977 24.2727 16.3256 24.2727C11.6372 24.2727 7.86047 20.5818 7.86047 16C7.86047 11.4182 11.6372 7.72727 16.3256 7.72727C18.3442 7.72727 20.1674 8.42727 21.6 9.57273L25.7674 5.5C23.2279 3.33636 19.9721 2 16.3256 2C8.3814 2 2 8.23636 2 16C2 23.7636 8.3814 30 16.3256 30C23.4884 30 30 24.9091 30 16C30 15.1727 29.8698 14.2818 29.6744 13.4545Z" fill="white"/>
</mask>
<g mask="url(#mask2_0_3638)">
<path d="M0.697754 7.72729L11.7675 16L16.3257 12.1182L31.9536 9.63639V0.727295H0.697754V7.72729Z" fill="black"/>
</g>
<mask id="mask3_0_3638" style="mask-type:luminance" maskUnits="userSpaceOnUse" x="2" y="2" width="28" height="28">
<path fill-rule="evenodd" clip-rule="evenodd" d="M29.6744 13.4545H16.3256V18.8636H24.0093C23.293 22.3 20.2977 24.2727 16.3256 24.2727C11.6372 24.2727 7.86047 20.5818 7.86047 16C7.86047 11.4182 11.6372 7.72727 16.3256 7.72727C18.3442 7.72727 20.1674 8.42727 21.6 9.57273L25.7674 5.5C23.2279 3.33636 19.9721 2 16.3256 2C8.3814 2 2 8.23636 2 16C2 23.7636 8.3814 30 16.3256 30C23.4884 30 30 24.9091 30 16C30 15.1727 29.8698 14.2818 29.6744 13.4545Z" fill="white"/>
</mask>
<g mask="url(#mask3_0_3638)">
<path d="M31.9535 31.2727L11.7675 16L9.16284 14.0909L31.9535 7.72729V31.2727Z" fill="black"/>
</g>
</svg>
