<svg width="14" height="16" viewBox="0 0 14 16" fill="none" xmlns="http://www.w3.org/2000/svg">
<path d="M12.9766 3.81641L7 0.511719L1.02344 3.81641L4.82031 5.92578C5.10156 5.64453 5.42969 5.42188 5.80469 5.25781C6.17969 5.09375 6.57812 5.01172 7 5.01172C7.42188 5.01172 7.82031 5.09375 8.19531 5.25781C8.57031 5.42188 8.89844 5.64453 9.17969 5.92578L12.9766 3.81641ZM5.48828 8C5.48828 7.57812 5.62891 7.22656 5.91016 6.94531C6.21484 6.64062 6.57812 6.48828 7 6.48828C7.42188 6.48828 7.77344 6.64062 8.05469 6.94531C8.35938 7.22656 8.51172 7.57812 8.51172 8C8.51172 8.42188 8.35938 8.78516 8.05469 9.08984C7.77344 9.37109 7.42188 9.51172 7 9.51172C6.57812 9.51172 6.21484 9.37109 5.91016 9.08984C5.62891 8.78516 5.48828 8.42188 5.48828 8ZM6.26172 15.0664L0.25 11.7617V5.11719L4.08203 7.22656C4.03516 7.46094 4.01172 7.71875 4.01172 8C4.01172 8.70312 4.22266 9.32422 4.64453 9.86328C5.06641 10.4023 5.60547 10.7539 6.26172 10.918V15.0664ZM7.73828 15.0664V10.918C8.39453 10.7539 8.93359 10.4023 9.35547 9.86328C9.77734 9.32422 9.98828 8.70312 9.98828 8C9.98828 7.71875 9.96484 7.46094 9.91797 7.22656L13.75 5.11719V11.7617L7.73828 15.0664Z" fill="black"/>
</svg>
