<svg width="16" height="16" viewBox="0 0 16 16" fill="none" xmlns="http://www.w3.org/2000/svg">
<path d="M9.86328 8C9.86328 8.51562 9.67578 8.96094 9.30078 9.33594C8.94922 9.6875 8.51562 9.86328 8 9.86328C7.48438 9.86328 7.03906 9.6875 6.66406 9.33594C6.3125 8.96094 6.13672 8.51562 6.13672 8C6.13672 7.48438 6.3125 7.05078 6.66406 6.69922C7.03906 6.32422 7.48438 6.13672 8 6.13672C8.51562 6.13672 8.94922 6.32422 9.30078 6.69922C9.67578 7.05078 9.86328 7.48438 9.86328 8ZM15.4883 8C15.4883 9.03125 15.2891 10.0039 14.8906 10.918C14.5156 11.8086 13.9766 12.6055 13.2734 13.3086C12.5938 13.9883 11.7969 14.5273 10.8828 14.9258C9.99219 15.3008 9.03125 15.4883 8 15.4883C6.96875 15.4883 5.99609 15.3008 5.08203 14.9258C4.19141 14.5273 3.39453 13.9883 2.69141 13.3086C2.01172 12.6055 1.47266 11.8086 1.07422 10.918C0.699219 10.0039 0.511719 9.03125 0.511719 8C0.511719 6.96875 0.699219 6.00781 1.07422 5.11719C1.47266 4.20312 2.01172 3.40625 2.69141 2.72656C3.39453 2.02344 4.19141 1.48438 5.08203 1.10938C5.99609 0.710938 6.96875 0.511719 8 0.511719C9.03125 0.511719 9.99219 0.710938 10.8828 1.10938C11.7969 1.48438 12.5938 2.02344 13.2734 2.72656C13.9766 3.40625 14.5156 4.20312 14.8906 5.11719C15.2891 6.00781 15.4883 6.96875 15.4883 8ZM14.0117 8H10.9883C10.9883 7.4375 10.8477 6.93359 10.5664 6.48828C10.3086 6.04297 9.95703 5.69141 9.51172 5.43359C9.06641 5.15234 8.5625 5.01172 8 5.01172C7.4375 5.01172 6.93359 5.15234 6.48828 5.43359C6.04297 5.69141 5.67969 6.04297 5.39844 6.48828C5.14062 6.93359 5.01172 7.4375 5.01172 8H1.98828C1.98828 8.82031 2.14062 9.59375 2.44531 10.3203C2.77344 11.0469 3.20703 11.6914 3.74609 12.2539C4.30859 12.793 4.95312 13.2266 5.67969 13.5547C6.40625 13.8594 7.17969 14.0117 8 14.0117C8.82031 14.0117 9.59375 13.8594 10.3203 13.5547C11.0469 13.2266 11.6797 12.793 12.2188 12.2539C12.7812 11.6914 13.2148 11.0469 13.5195 10.3203C13.8477 9.59375 14.0117 8.82031 14.0117 8Z" fill="black"/>
</svg>
