<svg width="12" height="14" viewBox="0 0 12 14" fill="none" xmlns="http://www.w3.org/2000/svg">
<path d="M9.44531 2.35938C9.79688 2.75781 10.1602 3.03906 10.5352 3.20312C10.9102 3.34375 11.2266 3.42578 11.4844 3.44922C11.7422 3.47266 11.8711 3.48438 11.8711 3.48438V5.80469C11.2852 5.80469 10.7109 5.71094 10.1484 5.52344C9.60938 5.33594 9.11719 5.07812 8.67188 4.75V9.46094C8.67188 10.2578 8.47266 10.9844 8.07422 11.6406C7.69922 12.2734 7.18359 12.7891 6.52734 13.1875C5.89453 13.5625 5.17969 13.75 4.38281 13.75C3.65625 13.75 2.96484 13.5742 2.30859 13.2227C1.65234 12.8477 1.125 12.3438 0.726562 11.7109C0.328125 11.0547 0.128906 10.3047 0.128906 9.46094C0.128906 8.82812 0.257812 8.24219 0.515625 7.70312C0.773438 7.14062 1.125 6.66016 1.57031 6.26172C2.01562 5.86328 2.53125 5.57031 3.11719 5.38281C3.70312 5.19531 4.32422 5.14844 4.98047 5.24219V7.59766C4.55859 7.48047 4.14844 7.49219 3.75 7.63281C3.375 7.77344 3.05859 8.00781 2.80078 8.33594C2.56641 8.66406 2.44922 9.03906 2.44922 9.46094C2.44922 10 2.63672 10.4688 3.01172 10.8672C3.41016 11.2422 3.86719 11.4297 4.38281 11.4297C4.92188 11.4297 5.37891 11.2539 5.75391 10.9023C6.12891 10.5273 6.32812 10.082 6.35156 9.56641V0.25H8.67188C8.67188 0.648437 8.74219 1.03516 8.88281 1.41016C9.02344 1.76172 9.21094 2.07812 9.44531 2.35938C9.58594 2.47656 9.64453 2.53516 9.62109 2.53516C9.62109 2.53516 9.58594 2.51172 9.51562 2.46484C9.46875 2.39453 9.44531 2.35938 9.44531 2.35938Z" fill="black"/>
</svg>
