<svg width="113" height="25" viewBox="0 0 113 25" fill="none" xmlns="http://www.w3.org/2000/svg">
<rect x="107" width="6" height="6" fill="#AE7AFF"/>
<rect x="103" y="4" width="6" height="6" fill="#E99898"/>
<g opacity="0.377858" filter="url(#filter0_b_8_45802)">
<rect x="107" y="4" width="2" height="2" fill="#0F0F0F"/>
</g>
<path fill-rule="evenodd" clip-rule="evenodd" d="M9.72805 15.432C10.624 15.592 11.384 16.064 12.008 16.848C12.632 17.632 12.944 18.52 12.944 19.512C12.944 20.36 12.724 21.124 12.284 21.804C11.844 22.484 11.208 23.02 10.376 23.412C9.54405 23.804 8.57605 24 7.47205 24H0.800049V7.31998H7.16005C8.29605 7.31998 9.27205 7.51198 10.088 7.89598C10.904 8.27998 11.52 8.79598 11.936 9.44398C12.352 10.092 12.56 10.816 12.56 11.616C12.56 12.576 12.304 13.376 11.792 14.016C11.28 14.656 10.592 15.128 9.72805 15.432ZM3.53605 14.328H6.92005C7.81605 14.328 8.51605 14.124 9.02005 13.716C9.52405 13.308 9.77605 12.72 9.77605 11.952C9.77605 11.2 9.52405 10.612 9.02005 10.188C8.51605 9.76398 7.81605 9.55198 6.92005 9.55198H3.53605V14.328ZM9.41605 21.096C8.88805 21.544 8.16005 21.768 7.23205 21.768H3.53605V16.56H7.13605C8.06405 16.56 8.80805 16.8 9.36805 17.28C9.92805 17.76 10.208 18.408 10.208 19.224C10.208 20.024 9.94405 20.648 9.41605 21.096Z" fill="white"/>
<path d="M9.72805 15.432L9.59529 15.0547C9.42391 15.115 9.31469 15.2832 9.32935 15.4643C9.34402 15.6454 9.47888 15.7938 9.65773 15.8257L9.72805 15.432ZM0.800049 24H0.400049C0.400049 24.2209 0.579135 24.4 0.800049 24.4L0.800049 24ZM0.800049 7.31998V6.91998C0.579135 6.91998 0.400049 7.09906 0.400049 7.31998H0.800049ZM3.53605 14.328H3.13605C3.13605 14.5489 3.31514 14.728 3.53605 14.728V14.328ZM9.02005 13.716L9.27173 14.0269L9.02005 13.716ZM9.02005 10.188L9.27755 9.88189V9.88189L9.02005 10.188ZM3.53605 9.55198V9.15198C3.31514 9.15198 3.13605 9.33106 3.13605 9.55198H3.53605ZM9.41605 21.096L9.15726 20.791L9.41605 21.096ZM3.53605 21.768H3.13605C3.13605 21.9889 3.31514 22.168 3.53605 22.168V21.768ZM3.53605 16.56V16.16C3.31514 16.16 3.13605 16.3391 3.13605 16.56H3.53605ZM9.36805 17.28L9.10773 17.5837L9.10773 17.5837L9.36805 17.28ZM12.321 16.5989C11.643 15.747 10.8001 15.2171 9.79837 15.0382L9.65773 15.8257C10.448 15.9669 11.1251 16.3809 11.6951 17.0971L12.321 16.5989ZM13.344 19.512C13.344 18.4285 13.0007 17.4529 12.321 16.5989L11.6951 17.0971C12.2633 17.8111 12.544 18.6115 12.544 19.512H13.344ZM12.6199 22.0213C13.1038 21.2734 13.344 20.4333 13.344 19.512H12.544C12.544 20.2867 12.3443 20.9745 11.9482 21.5867L12.6199 22.0213ZM10.5465 23.7738C11.4367 23.3544 12.134 22.7721 12.6199 22.0213L11.9482 21.5867C11.5541 22.1958 10.9794 22.6855 10.2056 23.0501L10.5465 23.7738ZM7.47205 24.4C8.62335 24.4 9.6516 24.1955 10.5465 23.7738L10.2056 23.0501C9.4365 23.4125 8.52874 23.6 7.47205 23.6V24.4ZM0.800049 24.4H7.47205V23.6H0.800049V24.4ZM0.400049 7.31998V24H1.20005V7.31998H0.400049ZM7.16005 6.91998H0.800049V7.71998H7.16005V6.91998ZM10.2584 7.53405C9.37712 7.11935 8.34009 6.91998 7.16005 6.91998V7.71998C8.252 7.71998 9.16698 7.90461 9.91773 8.2579L10.2584 7.53405ZM12.2727 9.22788C11.8095 8.50644 11.1306 7.9445 10.2584 7.53405L9.91773 8.2579C10.6775 8.61546 11.2306 9.08552 11.5994 9.66007L12.2727 9.22788ZM12.96 11.616C12.96 10.7425 12.7317 9.94295 12.2727 9.22788L11.5994 9.66007C11.9724 10.241 12.16 10.8895 12.16 11.616H12.96ZM12.1044 14.2659C12.6825 13.5432 12.96 12.6506 12.96 11.616H12.16C12.16 12.5014 11.9256 13.2088 11.4797 13.7661L12.1044 14.2659ZM9.86081 15.8093C10.7869 15.4835 11.5403 14.971 12.1044 14.2659L11.4797 13.7661C11.0198 14.341 10.3972 14.7725 9.59529 15.0547L9.86081 15.8093ZM6.92005 13.928H3.53605V14.728H6.92005V13.928ZM8.76837 13.4051C8.3585 13.7369 7.75905 13.928 6.92005 13.928V14.728C7.87305 14.728 8.6736 14.5111 9.27173 14.0269L8.76837 13.4051ZM9.37605 11.952C9.37605 12.6241 9.16085 13.0874 8.76837 13.4051L9.27173 14.0269C9.88724 13.5286 10.176 12.8159 10.176 11.952H9.37605ZM8.76254 10.4941C9.1628 10.8308 9.37605 11.2993 9.37605 11.952H10.176C10.176 11.1006 9.8853 10.3932 9.27755 9.88189L8.76254 10.4941ZM6.92005 9.95198C7.7558 9.95198 8.35295 10.1495 8.76254 10.4941L9.27755 9.88189C8.67915 9.37847 7.8763 9.15198 6.92005 9.15198V9.95198ZM3.53605 9.95198H6.92005V9.15198H3.53605V9.95198ZM3.93605 14.328V9.55198H3.13605V14.328H3.93605ZM7.23205 22.168C8.22237 22.168 9.05315 21.9285 9.67484 21.401L9.15726 20.791C8.72295 21.1595 8.09772 21.368 7.23205 21.368V22.168ZM3.53605 22.168H7.23205V21.368H3.53605V22.168ZM3.13605 16.56V21.768H3.93605V16.56H3.13605ZM7.13605 16.16H3.53605V16.96H7.13605V16.16ZM9.62837 16.9763C8.97867 16.4194 8.13413 16.16 7.13605 16.16V16.96C7.99397 16.96 8.63743 17.1806 9.10773 17.5837L9.62837 16.9763ZM10.608 19.224C10.608 18.3052 10.2871 17.5409 9.62836 16.9763L9.10773 17.5837C9.56899 17.979 9.80805 18.5108 9.80805 19.224H10.608ZM9.67484 21.401C10.3068 20.8648 10.608 20.1211 10.608 19.224H9.80805C9.80805 19.9268 9.58128 20.4312 9.15726 20.791L9.67484 21.401Z" fill="white"/>
<path d="M19.6132 12.696C20.0132 12.024 20.5452 11.5 21.2092 11.124C21.8732 10.748 22.6612 10.56 23.5732 10.56V13.392H22.8772C21.8052 13.392 20.9932 13.664 20.4412 14.208C19.8892 14.752 19.6132 15.696 19.6132 17.04V24H16.8772V10.776H19.6132V12.696Z" fill="white" stroke="white" stroke-width="0.8" stroke-linejoin="round"/>
<path d="M39.0264 10.776V24H36.2904V22.44C35.8584 22.984 35.2944 23.412 34.5984 23.724C33.9024 24.036 33.1624 24.192 32.3784 24.192C31.3384 24.192 30.4064 23.976 29.5824 23.544C28.7584 23.112 28.1104 22.472 27.6384 21.624C27.1664 20.776 26.9304 19.752 26.9304 18.552V10.776H29.6424V18.144C29.6424 19.328 29.9384 20.236 30.5304 20.868C31.1224 21.5 31.9304 21.816 32.9544 21.816C33.9784 21.816 34.7904 21.5 35.3904 20.868C35.9904 20.236 36.2904 19.328 36.2904 18.144V10.776H39.0264Z" fill="white" stroke="white" stroke-width="0.8" stroke-linejoin="round"/>
<path fill-rule="evenodd" clip-rule="evenodd" d="M43.4994 13.8C42.9474 14.824 42.6714 16 42.6714 17.328C42.6714 18.656 42.9474 19.844 43.4994 20.892C44.0514 21.94 44.8034 22.756 45.7554 23.34C46.7074 23.924 47.7594 24.216 48.9114 24.216C49.9354 24.216 50.8434 24.008 51.6354 23.592C52.4274 23.176 53.0474 22.648 53.4954 22.008V24H56.2554V6.23999H53.4954V12.624C52.9994 12 52.3314 11.5 51.4914 11.124C50.6514 10.748 49.7994 10.56 48.9354 10.56C47.7674 10.56 46.7074 10.844 45.7554 11.412C44.8034 11.98 44.0514 12.776 43.4994 13.8ZM52.9314 15C53.3074 15.672 53.4954 16.464 53.4954 17.376C53.4954 18.288 53.3074 19.084 52.9314 19.764C52.5554 20.444 52.0634 20.96 51.4554 21.312C50.8474 21.664 50.1914 21.84 49.4874 21.84C48.7994 21.84 48.1474 21.66 47.5314 21.3C46.9154 20.94 46.4194 20.416 46.0434 19.728C45.6674 19.04 45.4794 18.24 45.4794 17.328C45.4794 16.416 45.6674 15.628 46.0434 14.964C46.4194 14.3 46.9114 13.796 47.5194 13.452C48.1274 13.108 48.7834 12.936 49.4874 12.936C50.1914 12.936 50.8474 13.112 51.4554 13.464C52.0634 13.816 52.5554 14.328 52.9314 15Z" fill="white"/>
<path d="M43.4994 13.8L43.8515 13.9898L43.4994 13.8ZM53.4954 22.008H53.8954C53.8954 21.8334 53.7822 21.679 53.6156 21.6265C53.4491 21.574 53.2678 21.6356 53.1677 21.7786L53.4954 22.008ZM53.4954 24H53.0954C53.0954 24.2209 53.2745 24.4 53.4954 24.4V24ZM56.2554 24V24.4C56.4763 24.4 56.6554 24.2209 56.6554 24H56.2554ZM56.2554 6.23999H56.6554C56.6554 6.01908 56.4763 5.83999 56.2554 5.83999V6.23999ZM53.4954 6.23999V5.83999C53.2745 5.83999 53.0954 6.01908 53.0954 6.23999H53.4954ZM53.4954 12.624L53.1823 12.8729C53.2881 13.0061 53.4666 13.0577 53.6272 13.0016C53.7878 12.9456 53.8954 12.7941 53.8954 12.624H53.4954ZM51.4554 21.312L51.6558 21.6582L51.4554 21.312ZM46.0434 19.728L46.3944 19.5362H46.3944L46.0434 19.728ZM46.0434 14.964L45.6953 14.7669L45.6953 14.7669L46.0434 14.964ZM47.5194 13.452L47.3224 13.1039L47.5194 13.452ZM51.4554 13.464L51.6558 13.1178V13.1178L51.4554 13.464ZM43.0714 17.328C43.0714 16.0568 43.3351 14.9477 43.8515 13.9898L43.1473 13.6102C42.5596 14.7003 42.2714 15.9432 42.2714 17.328H43.0714ZM43.8533 20.7056C43.3351 19.7217 43.0714 18.599 43.0714 17.328H42.2714C42.2714 18.713 42.5597 19.9663 43.1455 21.0784L43.8533 20.7056ZM45.9645 22.999C45.0775 22.4549 44.3739 21.694 43.8533 20.7056L43.1455 21.0784C43.7289 22.186 44.5292 23.0571 45.5462 23.6809L45.9645 22.999ZM48.9114 23.816C47.8308 23.816 46.8516 23.5432 45.9645 22.999L45.5462 23.6809C46.5632 24.3048 47.688 24.616 48.9114 24.616V23.816ZM51.4494 23.2379C50.7226 23.6196 49.88 23.816 48.9114 23.816V24.616C49.9907 24.616 50.9642 24.3964 51.8214 23.9461L51.4494 23.2379ZM53.1677 21.7786C52.7613 22.3592 52.1931 22.8472 51.4494 23.2379L51.8214 23.9461C52.6616 23.5048 53.3335 22.9368 53.8231 22.2374L53.1677 21.7786ZM53.8954 24V22.008H53.0954V24H53.8954ZM56.2554 23.6H53.4954V24.4H56.2554V23.6ZM55.8554 6.23999V24H56.6554V6.23999H55.8554ZM53.4954 6.63999H56.2554V5.83999H53.4954V6.63999ZM53.8954 12.624V6.23999H53.0954V12.624H53.8954ZM51.328 11.4891C52.1186 11.843 52.7319 12.3063 53.1823 12.8729L53.8085 12.3751C53.2669 11.6937 52.5442 11.157 51.6548 10.7589L51.328 11.4891ZM48.9354 10.96C49.7394 10.96 50.536 11.1346 51.328 11.4891L51.6548 10.7589C50.7668 10.3614 49.8593 10.16 48.9354 10.16V10.96ZM45.9603 11.7555C46.847 11.2265 47.8355 10.96 48.9354 10.96V10.16C47.6993 10.16 46.5678 10.4615 45.5504 11.0685L45.9603 11.7555ZM43.8515 13.9898C44.371 13.0261 45.0735 12.2846 45.9603 11.7555L45.5504 11.0685C44.5333 11.6754 43.7318 12.5259 43.1473 13.6102L43.8515 13.9898ZM53.8954 17.376C53.8954 16.4082 53.6955 15.5465 53.2805 14.8047L52.5823 15.1953C52.9192 15.7975 53.0954 16.5197 53.0954 17.376H53.8954ZM53.2814 19.9575C53.6955 19.2088 53.8954 18.3439 53.8954 17.376H53.0954C53.0954 18.2321 52.9193 18.9592 52.5813 19.5704L53.2814 19.9575ZM51.6558 21.6582C52.3331 21.266 52.8742 20.6941 53.2814 19.9575L52.5813 19.5704C52.2366 20.1939 51.7937 20.6539 51.255 20.9658L51.6558 21.6582ZM49.4874 22.24C50.2616 22.24 50.9868 22.0455 51.6558 21.6582L51.255 20.9658C50.708 21.2825 50.1212 21.44 49.4874 21.44V22.24ZM47.3296 21.6453C48.0044 22.0397 48.7258 22.24 49.4874 22.24V21.44C48.873 21.44 48.2903 21.2802 47.7332 20.9546L47.3296 21.6453ZM45.6924 19.9198C46.0997 20.6651 46.6447 21.2451 47.3296 21.6453L47.7332 20.9546C47.1861 20.6349 46.7391 20.1669 46.3944 19.5362L45.6924 19.9198ZM45.0794 17.328C45.0794 18.296 45.2793 19.164 45.6924 19.9198L46.3944 19.5362C46.0554 18.9159 45.8794 18.184 45.8794 17.328H45.0794ZM45.6953 14.7669C45.2792 15.5017 45.0794 16.3604 45.0794 17.328H45.8794C45.8794 16.4716 46.0556 15.7542 46.3915 15.1611L45.6953 14.7669ZM47.3224 13.1039C46.6455 13.4868 46.1036 14.0458 45.6953 14.7669L46.3915 15.1611C46.7351 14.5542 47.1772 14.1052 47.7164 13.8001L47.3224 13.1039ZM49.4874 12.536C48.7149 12.536 47.991 12.7256 47.3224 13.1039L47.7164 13.8001C48.2638 13.4904 48.8519 13.336 49.4874 13.336V12.536ZM51.6558 13.1178C50.9868 12.7305 50.2616 12.536 49.4874 12.536V13.336C50.1212 13.336 50.708 13.4935 51.255 13.8102L51.6558 13.1178ZM53.2805 14.8047C52.8728 14.0762 52.3319 13.5092 51.6558 13.1178L51.255 13.8102C51.7949 14.1227 52.2379 14.5798 52.5823 15.1953L53.2805 14.8047Z" fill="white"/>
<path fill-rule="evenodd" clip-rule="evenodd" d="M60.7286 13.8C60.1766 14.824 59.9006 16 59.9006 17.328C59.9006 18.656 60.1766 19.844 60.7286 20.892C61.2806 21.94 62.0326 22.756 62.9846 23.34C63.9366 23.924 64.9886 24.216 66.1406 24.216C67.1646 24.216 68.0726 24.008 68.8646 23.592C69.6566 23.176 70.2766 22.648 70.7246 22.008V24H73.4846V6.23999H70.7246V12.624C70.2286 12 69.5606 11.5 68.7206 11.124C67.8806 10.748 67.0286 10.56 66.1646 10.56C64.9966 10.56 63.9366 10.844 62.9846 11.412C62.0326 11.98 61.2806 12.776 60.7286 13.8ZM70.1606 15C70.5366 15.672 70.7246 16.464 70.7246 17.376C70.7246 18.288 70.5366 19.084 70.1606 19.764C69.7846 20.444 69.2926 20.96 68.6846 21.312C68.0766 21.664 67.4206 21.84 66.7166 21.84C66.0286 21.84 65.3766 21.66 64.7606 21.3C64.1446 20.94 63.6486 20.416 63.2726 19.728C62.8966 19.04 62.7086 18.24 62.7086 17.328C62.7086 16.416 62.8966 15.628 63.2726 14.964C63.6486 14.3 64.1406 13.796 64.7486 13.452C65.3566 13.108 66.0126 12.936 66.7166 12.936C67.4206 12.936 68.0766 13.112 68.6846 13.464C69.2926 13.816 69.7846 14.328 70.1606 15Z" fill="white"/>
<path d="M60.7286 13.8L61.0807 13.9898L60.7286 13.8ZM70.7246 22.008H71.1246C71.1246 21.8334 71.0114 21.679 70.8449 21.6265C70.6784 21.574 70.4971 21.6356 70.3969 21.7786L70.7246 22.008ZM70.7246 24H70.3246C70.3246 24.2209 70.5037 24.4 70.7246 24.4V24ZM73.4846 24V24.4C73.7055 24.4 73.8846 24.2209 73.8846 24H73.4846ZM73.4846 6.23999H73.8846C73.8846 6.01908 73.7055 5.83999 73.4846 5.83999V6.23999ZM70.7246 6.23999V5.83999C70.5037 5.83999 70.3246 6.01908 70.3246 6.23999H70.7246ZM70.7246 12.624L70.4115 12.8729C70.5174 13.0061 70.6958 13.0577 70.8564 13.0016C71.0171 12.9456 71.1246 12.7941 71.1246 12.624H70.7246ZM68.6846 21.312L68.885 21.6582L68.6846 21.312ZM63.2726 19.728L63.6236 19.5362H63.6236L63.2726 19.728ZM63.2726 14.964L62.9246 14.7669L62.9246 14.7669L63.2726 14.964ZM64.7486 13.452L64.5517 13.1039L64.7486 13.452ZM68.6846 13.464L68.885 13.1178V13.1178L68.6846 13.464ZM60.3006 17.328C60.3006 16.0568 60.5644 14.9477 61.0807 13.9898L60.3765 13.6102C59.7889 14.7003 59.5006 15.9432 59.5006 17.328H60.3006ZM61.0825 20.7056C60.5643 19.7217 60.3006 18.599 60.3006 17.328H59.5006C59.5006 18.713 59.7889 19.9663 60.3747 21.0784L61.0825 20.7056ZM63.1938 22.999C62.3068 22.4549 61.6032 21.694 61.0825 20.7056L60.3747 21.0784C60.9581 22.186 61.7585 23.0571 62.7755 23.6809L63.1938 22.999ZM66.1406 23.816C65.06 23.816 64.0808 23.5432 63.1938 22.999L62.7755 23.6809C63.7925 24.3048 64.9172 24.616 66.1406 24.616V23.816ZM68.6786 23.2379C67.9518 23.6196 67.1093 23.816 66.1406 23.816V24.616C67.22 24.616 68.1935 24.3964 69.0506 23.9461L68.6786 23.2379ZM70.3969 21.7786C69.9905 22.3592 69.4224 22.8472 68.6786 23.2379L69.0506 23.9461C69.8909 23.5048 70.5627 22.9368 71.0523 22.2374L70.3969 21.7786ZM71.1246 24V22.008H70.3246V24H71.1246ZM73.4846 23.6H70.7246V24.4H73.4846V23.6ZM73.0846 6.23999V24H73.8846V6.23999H73.0846ZM70.7246 6.63999H73.4846V5.83999H70.7246V6.63999ZM71.1246 12.624V6.23999H70.3246V12.624H71.1246ZM68.5572 11.4891C69.3478 11.843 69.9611 12.3063 70.4115 12.8729L71.0378 12.3751C70.4961 11.6937 69.7735 11.157 68.8841 10.7589L68.5572 11.4891ZM66.1646 10.96C66.9687 10.96 67.7652 11.1346 68.5572 11.4891L68.8841 10.7589C67.9961 10.3614 67.0886 10.16 66.1646 10.16V10.96ZM63.1896 11.7555C64.0762 11.2265 65.0648 10.96 66.1646 10.96V10.16C64.9285 10.16 63.797 10.4615 62.7797 11.0685L63.1896 11.7555ZM61.0807 13.9898C61.6002 13.0261 62.3027 12.2846 63.1896 11.7555L62.7797 11.0685C61.7625 11.6754 60.961 12.5259 60.3765 13.6102L61.0807 13.9898ZM71.1246 17.376C71.1246 16.4082 70.9248 15.5465 70.5097 14.8047L69.8116 15.1953C70.1485 15.7975 70.3246 16.5197 70.3246 17.376H71.1246ZM70.5107 19.9575C70.9247 19.2088 71.1246 18.3439 71.1246 17.376H70.3246C70.3246 18.2321 70.1485 18.9592 69.8106 19.5704L70.5107 19.9575ZM68.885 21.6582C69.5624 21.266 70.1034 20.6941 70.5107 19.9575L69.8106 19.5704C69.4659 20.1939 69.0229 20.6539 68.4842 20.9658L68.885 21.6582ZM66.7166 22.24C67.4909 22.24 68.216 22.0455 68.885 21.6582L68.4842 20.9658C67.9373 21.2825 67.3504 21.44 66.7166 21.44V22.24ZM64.5588 21.6453C65.2337 22.0397 65.955 22.24 66.7166 22.24V21.44C66.1023 21.44 65.5196 21.2802 64.9625 20.9546L64.5588 21.6453ZM62.9216 19.9198C63.3289 20.6651 63.874 21.2451 64.5588 21.6453L64.9625 20.9546C64.4153 20.6349 63.9683 20.1669 63.6236 19.5362L62.9216 19.9198ZM62.3086 17.328C62.3086 18.296 62.5086 19.164 62.9216 19.9198L63.6236 19.5362C63.2847 18.9159 63.1086 18.184 63.1086 17.328H62.3086ZM62.9246 14.7669C62.5084 15.5017 62.3086 16.3604 62.3086 17.328H63.1086C63.1086 16.4716 63.2848 15.7542 63.6207 15.1611L62.9246 14.7669ZM64.5517 13.1039C63.8748 13.4868 63.3329 14.0458 62.9246 14.7669L63.6207 15.1611C63.9644 14.5542 64.4065 14.1052 64.9456 13.8001L64.5517 13.1039ZM66.7166 12.536C65.9442 12.536 65.2202 12.7256 64.5517 13.1039L64.9456 13.8001C65.493 13.4904 66.0811 13.336 66.7166 13.336V12.536ZM68.885 13.1178C68.216 12.7305 67.4909 12.536 66.7166 12.536V13.336C67.3504 13.336 67.9373 13.4935 68.4842 13.8102L68.885 13.1178ZM70.5097 14.8047C70.1021 14.0762 69.5611 13.5092 68.885 13.1178L68.4842 13.8102C69.0241 14.1227 69.4672 14.5798 69.8116 15.1953L70.5097 14.8047Z" fill="white"/>
<path d="M80.7777 6.23999V24H78.0417V6.23999H80.7777Z" fill="white" stroke="white" stroke-width="0.8" stroke-linejoin="round"/>
<path fill-rule="evenodd" clip-rule="evenodd" d="M97.3589 18.408C97.4229 18.008 97.4549 17.56 97.4549 17.064C97.4549 15.784 97.1829 14.652 96.6389 13.668C96.0949 12.684 95.3349 11.92 94.3589 11.376C93.3829 10.832 92.2709 10.56 91.0229 10.56C89.7269 10.56 88.5789 10.84 87.5789 11.4C86.5789 11.96 85.8029 12.756 85.2509 13.788C84.6989 14.82 84.4229 16.016 84.4229 17.376C84.4229 18.736 84.7069 19.932 85.2749 20.964C85.8429 21.996 86.6269 22.796 87.6269 23.364C88.6269 23.932 89.7589 24.216 91.0229 24.216C92.5749 24.216 93.8749 23.828 94.9229 23.052C95.9709 22.276 96.6949 21.28 97.0949 20.064H94.1429C93.5349 21.296 92.4949 21.912 91.0229 21.912C89.9989 21.912 89.1349 21.592 88.4309 20.952C87.7269 20.312 87.3349 19.464 87.2549 18.408H97.3589ZM93.5189 13.776C94.2229 14.384 94.5829 15.192 94.5989 16.2H87.2789C87.4069 15.176 87.8069 14.364 88.4789 13.764C89.1509 13.164 89.9589 12.864 90.9029 12.864C91.9429 12.864 92.8149 13.168 93.5189 13.776Z" fill="white"/>
<path d="M97.3589 18.408V18.808C97.5554 18.808 97.7228 18.6652 97.7538 18.4712L97.3589 18.408ZM87.5789 11.4L87.3834 11.051L87.5789 11.4ZM85.2749 20.964L84.9244 21.1569L85.2749 20.964ZM97.0949 20.064L97.4748 20.189C97.5149 20.0671 97.4941 19.9334 97.4189 19.8295C97.3437 19.7255 97.2232 19.664 97.0949 19.664V20.064ZM94.1429 20.064V19.664C93.9906 19.664 93.8515 19.7504 93.7842 19.887L94.1429 20.064ZM87.2549 18.408V18.008C87.1435 18.008 87.0372 18.0544 86.9615 18.136C86.8858 18.2177 86.8476 18.3272 86.856 18.4382L87.2549 18.408ZM94.5989 16.2V16.6C94.706 16.6 94.8087 16.557 94.8839 16.4806C94.9591 16.4042 95.0005 16.3008 94.9988 16.1936L94.5989 16.2ZM87.2789 16.2L86.8819 16.1504C86.8677 16.2642 86.903 16.3787 86.979 16.4647C87.0549 16.5507 87.1641 16.6 87.2789 16.6V16.2ZM88.4789 13.764L88.2124 13.4656L88.4789 13.764ZM97.0549 17.064C97.0549 17.5433 97.0239 17.9697 96.9639 18.3448L97.7538 18.4712C97.8218 18.0463 97.8549 17.5767 97.8549 17.064H97.0549ZM96.2888 13.8615C96.7957 14.7785 97.0549 15.8422 97.0549 17.064H97.8549C97.8549 15.7258 97.57 14.5255 96.9889 13.4745L96.2888 13.8615ZM94.1641 11.7254C95.0743 12.2327 95.7807 12.9425 96.2888 13.8615L96.9889 13.4745C96.409 12.4254 95.5954 11.6073 94.5536 11.0266L94.1641 11.7254ZM91.0229 10.96C92.2108 10.96 93.2544 11.2183 94.1641 11.7254L94.5536 11.0266C93.5113 10.4457 92.3309 10.16 91.0229 10.16V10.96ZM87.7743 11.749C88.7071 11.2266 89.7862 10.96 91.0229 10.96V10.16C89.6675 10.16 88.4506 10.4534 87.3834 11.051L87.7743 11.749ZM85.6036 13.9767C86.1203 13.0105 86.8424 12.2708 87.7743 11.749L87.3834 11.051C86.3153 11.6492 85.4854 12.5015 84.8981 13.5993L85.6036 13.9767ZM84.8229 17.376C84.8229 16.0711 85.0873 14.9419 85.6036 13.9767L84.8981 13.5993C84.3104 14.6981 84.0229 15.9609 84.0229 17.376H84.8229ZM85.6253 20.7711C85.0945 19.8068 84.8229 18.6791 84.8229 17.376H84.0229C84.0229 18.7929 84.3192 20.0572 84.9244 21.1569L85.6253 20.7711ZM87.8244 23.0162C86.8903 22.4856 86.1585 21.74 85.6253 20.7711L84.9244 21.1569C85.5272 22.252 86.3634 23.1064 87.4293 23.7118L87.8244 23.0162ZM91.0229 23.816C89.8211 23.816 88.7583 23.5467 87.8244 23.0162L87.4293 23.7118C88.4954 24.3173 89.6966 24.616 91.0229 24.616V23.816ZM94.6848 22.7305C93.7181 23.4464 92.5059 23.816 91.0229 23.816V24.616C92.6438 24.616 94.0316 24.2096 95.1609 23.3735L94.6848 22.7305ZM96.7149 19.939C96.3412 21.0749 95.6677 22.0028 94.6848 22.7305L95.1609 23.3735C96.274 22.5492 97.0485 21.4851 97.4748 20.189L96.7149 19.939ZM94.1429 20.464H97.0949V19.664H94.1429V20.464ZM91.0229 22.312C91.815 22.312 92.5168 22.1459 93.1107 21.7942C93.7062 21.4414 94.1681 20.9168 94.5015 20.241L93.7842 19.887C93.5097 20.4432 93.1475 20.8426 92.703 21.1058C92.2569 21.3701 91.7027 21.512 91.0229 21.512V22.312ZM88.1618 21.248C88.9453 21.9603 89.9076 22.312 91.0229 22.312V21.512C90.0901 21.512 89.3244 21.2237 88.6999 20.656L88.1618 21.248ZM86.856 18.4382C86.9428 19.5836 87.3734 20.5312 88.1618 21.248L88.6999 20.656C88.0803 20.0928 87.7269 19.3444 87.6537 18.3778L86.856 18.4382ZM97.3589 18.008H87.2549V18.808H97.3589V18.008ZM94.9988 16.1936C94.9812 15.0824 94.5784 14.1625 93.7803 13.4733L93.2574 14.0787C93.8673 14.6054 94.1845 15.3016 94.1989 16.2063L94.9988 16.1936ZM87.2789 16.6H94.5989V15.8H87.2789V16.6ZM88.2124 13.4656C87.4579 14.1394 87.0201 15.0453 86.8819 16.1504L87.6758 16.2496C87.7936 15.3067 88.1558 14.5886 88.7453 14.0624L88.2124 13.4656ZM90.9029 12.464C89.8657 12.464 88.9615 12.7968 88.2124 13.4656L88.7453 14.0624C89.3402 13.5312 90.052 13.264 90.9029 13.264V12.464ZM93.7803 13.4733C92.995 12.795 92.0267 12.464 90.9029 12.464V13.264C91.859 13.264 92.6347 13.541 93.2574 14.0787L93.7803 13.4733Z" fill="white"/>
<defs>
<filter id="filter0_b_8_45802" x="96.1269" y="-6.87313" width="23.7463" height="23.7463" filterUnits="userSpaceOnUse" color-interpolation-filters="sRGB">
<feFlood flood-opacity="0" result="BackgroundImageFix"/>
<feGaussianBlur in="BackgroundImageFix" stdDeviation="5.43656"/>
<feComposite in2="SourceAlpha" operator="in" result="effect1_backgroundBlur_8_45802"/>
<feBlend mode="normal" in="SourceGraphic" in2="effect1_backgroundBlur_8_45802" result="shape"/>
</filter>
</defs>
</svg>
