<svg width="100" height="22" viewBox="0 0 100 22" fill="none" xmlns="http://www.w3.org/2000/svg">
<rect x="94.1602" width="5.28" height="5.28" fill="#AE7AFF"/>
<rect x="90.6401" y="3.52002" width="5.28001" height="5.28" fill="#E99898"/>
<g opacity="0.377858" filter="url(#filter0_b_0_1518)">
<rect x="94.1602" y="3.52002" width="1.76" height="1.76" fill="white"/>
</g>
<path fill-rule="evenodd" clip-rule="evenodd" d="M8.56074 13.5802C9.34922 13.721 10.018 14.1363 10.5671 14.8262C11.1163 15.5161 11.3908 16.2976 11.3908 17.1706C11.3908 17.9168 11.1972 18.5891 10.81 19.1875C10.4228 19.7859 9.86314 20.2576 9.13098 20.6025C8.39882 20.9475 7.54698 21.12 6.57546 21.12H0.704102V6.44159H6.3009C7.30058 6.44159 8.15946 6.61055 8.87754 6.94847C9.59562 7.28639 10.1377 7.74047 10.5038 8.31071C10.8699 8.88095 11.0529 9.51807 11.0529 10.2221C11.0529 11.0669 10.8276 11.7709 10.3771 12.3341C9.9265 12.8973 9.32106 13.3126 8.56074 13.5802ZM3.11178 12.6086H6.0897C6.87818 12.6086 7.49418 12.4291 7.9377 12.0701C8.38122 11.711 8.60298 11.1936 8.60298 10.5177C8.60298 9.85599 8.38122 9.33855 7.9377 8.96543C7.49418 8.59231 6.87818 8.40575 6.0897 8.40575H3.11178V12.6086ZM8.28618 18.5645C7.82154 18.9587 7.1809 19.1558 6.36426 19.1558H3.11178V14.5728H6.27978C7.09642 14.5728 7.75114 14.784 8.24394 15.2064C8.73674 15.6288 8.98314 16.199 8.98314 16.9171C8.98314 17.6211 8.75082 18.1702 8.28618 18.5645Z" fill="black"/>
<path d="M10.5671 14.8262L10.1759 15.1376L10.5671 14.8262ZM8.56074 13.5802L8.39479 13.1085C8.18056 13.1839 8.04404 13.3942 8.06237 13.6205C8.08071 13.8469 8.24928 14.0324 8.47285 14.0724L8.56074 13.5802ZM9.13098 20.6025L9.34409 21.0549L9.13098 20.6025ZM0.704102 21.12H0.204102C0.204102 21.3961 0.427959 21.62 0.704102 21.62L0.704102 21.12ZM0.704102 6.44159V5.94159C0.427959 5.94159 0.204102 6.16545 0.204102 6.44159H0.704102ZM8.87754 6.94847L9.09044 6.49606L9.09044 6.49606L8.87754 6.94847ZM10.5038 8.31071L10.9245 8.04059V8.04059L10.5038 8.31071ZM10.3771 12.3341L10.7675 12.6464L10.3771 12.3341ZM3.11178 12.6086H2.61178C2.61178 12.8848 2.83564 13.1086 3.11178 13.1086V12.6086ZM7.9377 12.0701L7.6231 11.6814L7.6231 11.6814L7.9377 12.0701ZM3.11178 8.40575V7.90575C2.83564 7.90575 2.61178 8.12961 2.61178 8.40575H3.11178ZM8.28618 18.5645L8.60967 18.9457L8.60967 18.9457L8.28618 18.5645ZM3.11178 19.1558H2.61178C2.61178 19.432 2.83564 19.6558 3.11178 19.6558V19.1558ZM3.11178 14.5728V14.0728C2.83564 14.0728 2.61178 14.2966 2.61178 14.5728H3.11178ZM8.24394 15.2064L7.91855 15.586H7.91855L8.24394 15.2064ZM10.9584 14.5149C10.3417 13.7401 9.56926 13.2523 8.64864 13.0879L8.47285 14.0724C9.12918 14.1896 9.69432 14.5325 10.1759 15.1376L10.9584 14.5149ZM11.8908 17.1706C11.8908 16.1832 11.5771 15.2923 10.9584 14.5149L10.1759 15.1376C10.6554 15.74 10.8908 16.4119 10.8908 17.1706H11.8908ZM11.2298 19.4591C11.6719 18.7759 11.8908 18.0084 11.8908 17.1706H10.8908C10.8908 17.8252 10.7225 18.4023 10.3902 18.9159L11.2298 19.4591ZM9.34409 21.0549C10.1489 20.6757 10.7853 20.1461 11.2298 19.4591L10.3902 18.9159C10.0603 19.4257 9.57736 19.8395 8.91787 20.1502L9.34409 21.0549ZM6.57546 21.62C7.60611 21.62 8.53326 21.4369 9.34409 21.0549L8.91787 20.1502C8.26439 20.4581 7.48785 20.62 6.57546 20.62V21.62ZM0.704102 21.62H6.57546V20.62H0.704102V21.62ZM0.204102 6.44159V21.12H1.2041V6.44159H0.204102ZM6.3009 5.94159H0.704102V6.94159H6.3009V5.94159ZM9.09044 6.49606C8.2908 6.11976 7.35564 5.94159 6.3009 5.94159V6.94159C7.24553 6.94159 8.02812 7.10134 8.66464 7.40088L9.09044 6.49606ZM10.9245 8.04059C10.4995 7.37855 9.87877 6.86704 9.09044 6.49606L8.66464 7.40088C9.31247 7.70574 9.77588 8.10239 10.083 8.58083L10.9245 8.04059ZM11.5529 10.2221C11.5529 9.42623 11.3444 8.69467 10.9245 8.04059L10.083 8.58083C10.3953 9.06723 10.5529 9.60991 10.5529 10.2221H11.5529ZM10.7675 12.6464C11.3007 11.9799 11.5529 11.1601 11.5529 10.2221H10.5529C10.5529 10.9736 10.3545 11.5618 9.98663 12.0217L10.7675 12.6464ZM8.7267 14.0518C9.56459 13.757 10.2518 13.291 10.7675 12.6464L9.98663 12.0217C9.60121 12.5035 9.07753 12.8683 8.39479 13.1085L8.7267 14.0518ZM6.0897 12.1086H3.11178V13.1086H6.0897V12.1086ZM7.6231 11.6814C7.29725 11.9452 6.80693 12.1086 6.0897 12.1086V13.1086C6.94943 13.1086 7.69112 12.913 8.2523 12.4587L7.6231 11.6814ZM8.10298 10.5177C8.10298 11.0737 7.92723 11.4353 7.6231 11.6814L8.2523 12.4587C8.83522 11.9868 9.10298 11.3135 9.10298 10.5177H8.10298ZM7.61582 9.34804C7.92966 9.61206 8.10298 9.98016 8.10298 10.5177H9.10298C9.10298 9.73181 8.83279 9.06504 8.25958 8.58282L7.61582 9.34804ZM6.0897 8.90575C6.80287 8.90575 7.29031 9.0742 7.61582 9.34804L8.25958 8.58282C7.69806 8.11042 6.95349 7.90575 6.0897 7.90575V8.90575ZM3.11178 8.90575H6.0897V7.90575H3.11178V8.90575ZM3.61178 12.6086V8.40575H2.61178V12.6086H3.61178ZM6.36426 19.6558C7.25881 19.6558 8.02792 19.4393 8.60967 18.9457L7.96269 18.1832C7.61516 18.4781 7.103 18.6558 6.36426 18.6558V19.6558ZM3.11178 19.6558H6.36426V18.6558H3.11178V19.6558ZM2.61178 14.5728V19.1558H3.61178V14.5728H2.61178ZM6.27978 14.0728H3.11178V15.0728H6.27978V14.0728ZM8.56934 14.8268C7.96441 14.3083 7.18402 14.0728 6.27978 14.0728V15.0728C7.00882 15.0728 7.53787 15.2597 7.91855 15.586L8.56934 14.8268ZM9.48314 16.9171C9.48314 16.0705 9.18557 15.355 8.56934 14.8268L7.91855 15.586C8.28791 15.9026 8.48314 16.3275 8.48314 16.9171H9.48314ZM8.60967 18.9457C9.20428 18.4412 9.48314 17.7426 9.48314 16.9171H8.48314C8.48314 17.4997 8.29736 17.8993 7.96269 18.1832L8.60967 18.9457Z" fill="black"/>
<path d="M17.2597 11.1725C17.6117 10.5811 18.0799 10.12 18.6642 9.78911C19.2485 9.45823 19.942 9.29279 20.7445 9.29279V11.7849H20.1321C19.1887 11.7849 18.4741 12.0243 17.9884 12.503C17.5026 12.9817 17.2597 13.8125 17.2597 14.9952V21.12H14.8521V9.48287H17.2597V11.1725Z" fill="black" stroke="black" stroke-linejoin="round"/>
<path d="M34.3432 9.48291V21.12H31.9355V19.7472C31.5554 20.2259 31.0591 20.6026 30.4466 20.8771C29.8341 21.1517 29.1829 21.289 28.493 21.289C27.5778 21.289 26.7576 21.0989 26.0325 20.7188C25.3074 20.3386 24.7371 19.7754 24.3218 19.0292C23.9064 18.2829 23.6987 17.3818 23.6987 16.3258V9.48291H26.0853V15.9668C26.0853 17.0087 26.3458 17.8077 26.8667 18.3639C27.3877 18.92 28.0987 19.1981 28.9999 19.1981C29.901 19.1981 30.6155 18.92 31.1435 18.3639C31.6715 17.8077 31.9355 17.0087 31.9355 15.9668V9.48291H34.3432Z" fill="black" stroke="black" stroke-linejoin="round"/>
<path fill-rule="evenodd" clip-rule="evenodd" d="M38.2794 12.144C37.7937 13.0451 37.5508 14.08 37.5508 15.2487C37.5508 16.4173 37.7937 17.4627 38.2794 18.385C38.7652 19.3072 39.4269 20.0253 40.2647 20.5392C41.1025 21.0531 42.0282 21.3101 43.042 21.3101C43.9431 21.3101 44.7421 21.1271 45.4391 20.761C46.1361 20.3949 46.6817 19.9303 47.0759 19.3671V21.12H49.5047V5.49121H47.0759V11.1091C46.6394 10.56 46.0516 10.12 45.3124 9.78913C44.5732 9.45825 43.8234 9.29281 43.0631 9.29281C42.0353 9.29281 41.1025 9.54273 40.2647 10.0426C39.4269 10.5424 38.7652 11.2429 38.2794 12.144ZM46.5796 13.2C46.9105 13.7914 47.0759 14.4883 47.0759 15.2909C47.0759 16.0935 46.9105 16.7939 46.5796 17.3923C46.2487 17.9907 45.8157 18.4448 45.2807 18.7546C44.7457 19.0643 44.1684 19.2192 43.5489 19.2192C42.9434 19.2192 42.3697 19.0608 41.8276 18.744C41.2855 18.4272 40.849 17.9661 40.5181 17.3607C40.1873 16.7552 40.0218 16.0512 40.0218 15.2487C40.0218 14.4461 40.1873 13.7527 40.5181 13.1683C40.849 12.584 41.282 12.1405 41.817 11.8378C42.3521 11.5351 42.9293 11.3837 43.5489 11.3837C44.1684 11.3837 44.7457 11.5386 45.2807 11.8483C45.8157 12.1581 46.2487 12.6087 46.5796 13.2Z" fill="black"/>
<path d="M38.2794 18.385L37.837 18.618H37.837L38.2794 18.385ZM45.4391 20.761L45.6716 21.2036L45.6716 21.2036L45.4391 20.761ZM47.0759 19.3671H47.5759C47.5759 19.1488 47.4344 18.9558 47.2262 18.8902C47.0181 18.8246 46.7914 18.9015 46.6663 19.0803L47.0759 19.3671ZM47.0759 21.12H46.5759C46.5759 21.3962 46.7998 21.62 47.0759 21.62V21.12ZM49.5047 21.12V21.62C49.7808 21.62 50.0047 21.3962 50.0047 21.12H49.5047ZM49.5047 5.49121H50.0047C50.0047 5.21507 49.7808 4.99121 49.5047 4.99121V5.49121ZM47.0759 5.49121V4.99121C46.7998 4.99121 46.5759 5.21507 46.5759 5.49121H47.0759ZM47.0759 11.1091L46.6845 11.4203C46.8168 11.5867 47.0399 11.6513 47.2407 11.5812C47.4414 11.5111 47.5759 11.3218 47.5759 11.1091H47.0759ZM45.3124 9.78913L45.5167 9.33276L45.3124 9.78913ZM40.2647 10.0426L40.5209 10.472H40.5209L40.2647 10.0426ZM46.5796 13.2L46.1432 13.4442L46.5796 13.2ZM46.5796 17.3923L46.142 17.1504L46.5796 17.3923ZM45.2807 18.7546L45.5312 19.1873L45.2807 18.7546ZM41.8276 18.744L42.0799 18.3123L41.8276 18.744ZM41.817 11.8378L41.5708 11.4026L41.817 11.8378ZM45.2807 11.8483L45.5312 11.4156L45.2807 11.8483ZM38.0508 15.2487C38.0508 14.151 38.2783 13.1997 38.7195 12.3813L37.8393 11.9068C37.309 12.8905 37.0508 14.009 37.0508 15.2487H38.0508ZM38.7218 18.152C38.2783 17.3099 38.0508 16.3461 38.0508 15.2487H37.0508C37.0508 16.4885 37.309 17.6156 37.837 18.618L38.7218 18.152ZM40.5262 20.113C39.7696 19.6489 39.1683 18.9997 38.7218 18.152L37.837 18.618C38.362 19.6147 39.0842 20.4016 40.0033 20.9654L40.5262 20.113ZM43.042 20.8101C42.1175 20.8101 41.2827 20.5771 40.5262 20.113L40.0033 20.9654C40.9222 21.5292 41.939 21.8101 43.042 21.8101V20.8101ZM45.2066 20.3183C44.5911 20.6416 43.8739 20.8101 43.042 20.8101V21.8101C44.0123 21.8101 44.8932 21.6125 45.6716 21.2036L45.2066 20.3183ZM46.6663 19.0803C46.324 19.5692 45.8432 19.9839 45.2066 20.3183L45.6716 21.2036C46.4289 20.8059 47.0393 20.2913 47.4855 19.6538L46.6663 19.0803ZM47.5759 21.12V19.3671H46.5759V21.12H47.5759ZM49.5047 20.62H47.0759V21.62H49.5047V20.62ZM49.0047 5.49121V21.12H50.0047V5.49121H49.0047ZM47.0759 5.99121H49.5047V4.99121H47.0759V5.99121ZM47.5759 11.1091V5.49121H46.5759V11.1091H47.5759ZM45.1081 10.2455C45.7855 10.5487 46.3051 10.9429 46.6845 11.4203L47.4673 10.798C46.9738 10.1771 46.3176 9.69129 45.5167 9.33276L45.1081 10.2455ZM43.0631 9.79281C43.7485 9.79281 44.4289 9.94147 45.1081 10.2455L45.5167 9.33276C44.7175 8.97503 43.8984 8.79281 43.0631 8.79281V9.79281ZM40.5209 10.472C41.277 10.0208 42.1204 9.79281 43.0631 9.79281V8.79281C41.9501 8.79281 40.928 9.06462 40.0085 9.61319L40.5209 10.472ZM38.7195 12.3813C39.1647 11.5555 39.7646 10.9232 40.5209 10.472L40.0085 9.61319C39.0893 10.1616 38.3657 10.9303 37.8393 11.9068L38.7195 12.3813ZM47.5759 15.2909C47.5759 14.4186 47.3956 13.6345 47.0159 12.9559L46.1432 13.4442C46.4253 13.9482 46.5759 14.558 46.5759 15.2909H47.5759ZM47.0171 17.6343C47.3956 16.9499 47.5759 16.1633 47.5759 15.2909H46.5759C46.5759 16.0236 46.4254 16.638 46.142 17.1504L47.0171 17.6343ZM45.5312 19.1873C46.1529 18.8274 46.6472 18.3034 47.0171 17.6343L46.142 17.1504C45.8502 17.6781 45.4786 18.0623 45.0302 18.3219L45.5312 19.1873ZM43.5489 19.7192C44.2562 19.7192 44.9199 19.5412 45.5312 19.1873L45.0302 18.3219C44.5714 18.5874 44.0806 18.7192 43.5489 18.7192V19.7192ZM41.5753 19.1757C42.191 19.5355 42.8514 19.7192 43.5489 19.7192V18.7192C43.0355 18.7192 42.5484 18.5861 42.0799 18.3123L41.5753 19.1757ZM40.0794 17.6004C40.4494 18.2775 40.9472 18.8086 41.5753 19.1757L42.0799 18.3123C41.6239 18.0458 41.2487 17.6547 40.9569 17.1209L40.0794 17.6004ZM39.5218 15.2487C39.5218 16.1213 39.7022 16.9103 40.0794 17.6004L40.9569 17.1209C40.6723 16.6002 40.5218 15.9812 40.5218 15.2487H39.5218ZM40.0831 12.922C39.702 13.5948 39.5218 14.3766 39.5218 15.2487H40.5218C40.5218 14.5156 40.6725 13.9105 40.9532 13.4147L40.0831 12.922ZM41.5708 11.4026C40.9497 11.754 40.4544 12.2663 40.0831 12.922L40.9532 13.4147C41.2437 12.9018 41.6143 12.5269 42.0632 12.2729L41.5708 11.4026ZM43.5489 10.8837C42.8438 10.8837 42.1816 11.057 41.5708 11.4026L42.0632 12.2729C42.5226 12.0131 43.0149 11.8837 43.5489 11.8837V10.8837ZM45.5312 11.4156C44.9199 11.0617 44.2562 10.8837 43.5489 10.8837V11.8837C44.0806 11.8837 44.5714 12.0155 45.0302 12.281L45.5312 11.4156ZM47.0159 12.9559C46.6455 12.2939 46.1514 11.7747 45.5312 11.4156L45.0302 12.281C45.4801 12.5415 45.8519 12.9234 46.1432 13.4442L47.0159 12.9559Z" fill="black"/>
<path fill-rule="evenodd" clip-rule="evenodd" d="M53.441 12.144C52.9553 13.0451 52.7124 14.08 52.7124 15.2487C52.7124 16.4173 52.9553 17.4627 53.441 18.385C53.9268 19.3072 54.5886 20.0253 55.4263 20.5392C56.2641 21.0531 57.1898 21.3101 58.2036 21.3101C59.1047 21.3101 59.9038 21.1271 60.6007 20.761C61.2977 20.3949 61.8433 19.9303 62.2375 19.3671V21.12H64.6663V5.49121H62.2375V11.1091C61.801 10.56 61.2132 10.12 60.474 9.78913C59.7348 9.45825 58.985 9.29281 58.2247 9.29281C57.1969 9.29281 56.2641 9.54273 55.4263 10.0426C54.5886 10.5424 53.9268 11.2429 53.441 12.144ZM61.7412 13.2C62.0721 13.7914 62.2375 14.4883 62.2375 15.2909C62.2375 16.0935 62.0721 16.7939 61.7412 17.3923C61.4103 17.9907 60.9774 18.4448 60.4423 18.7546C59.9073 19.0643 59.33 19.2192 58.7105 19.2192C58.105 19.2192 57.5313 19.0608 56.9892 18.744C56.4471 18.4272 56.0106 17.9661 55.6798 17.3607C55.3489 16.7552 55.1834 16.0512 55.1834 15.2487C55.1834 14.4461 55.3489 13.7527 55.6798 13.1683C56.0106 12.584 56.4436 12.1405 56.9786 11.8378C57.5137 11.5351 58.091 11.3837 58.7105 11.3837C59.33 11.3837 59.9073 11.5386 60.4423 11.8483C60.9774 12.1581 61.4103 12.6087 61.7412 13.2Z" fill="black"/>
<path d="M53.441 18.385L52.9987 18.618H52.9987L53.441 18.385ZM55.4263 20.5392L55.6878 20.113H55.6878L55.4263 20.5392ZM60.6007 20.761L60.8332 21.2036L60.8332 21.2036L60.6007 20.761ZM62.2375 19.3671H62.7375C62.7375 19.1488 62.596 18.9558 62.3878 18.8902C62.1797 18.8246 61.9531 18.9015 61.8279 19.0803L62.2375 19.3671ZM62.2375 21.12H61.7375C61.7375 21.3962 61.9614 21.62 62.2375 21.62V21.12ZM64.6663 21.12V21.62C64.9425 21.62 65.1663 21.3962 65.1663 21.12H64.6663ZM64.6663 5.49121H65.1663C65.1663 5.21507 64.9425 4.99121 64.6663 4.99121V5.49121ZM62.2375 5.49121V4.99121C61.9614 4.99121 61.7375 5.21507 61.7375 5.49121H62.2375ZM62.2375 11.1091L61.8461 11.4203C61.9784 11.5867 62.2015 11.6513 62.4023 11.5812C62.603 11.5111 62.7375 11.3218 62.7375 11.1091H62.2375ZM60.474 9.78913L60.6783 9.33276L60.6783 9.33276L60.474 9.78913ZM55.4263 10.0426L55.6825 10.472H55.6825L55.4263 10.0426ZM61.7412 13.2L61.3049 13.4442H61.3049L61.7412 13.2ZM61.7412 17.3923L61.3036 17.1504L61.7412 17.3923ZM60.4423 18.7546L60.1918 18.3219L60.4423 18.7546ZM56.9892 18.744L57.2415 18.3123L56.9892 18.744ZM55.6798 17.3607L56.1185 17.1209L55.6798 17.3607ZM55.6798 13.1683L56.1148 13.4147L55.6798 13.1683ZM56.9786 11.8378L56.7324 11.4026V11.4026L56.9786 11.8378ZM60.4423 11.8483L60.1918 12.281L60.4423 11.8483ZM53.2124 15.2487C53.2124 14.151 53.44 13.1997 53.8812 12.3813L53.0009 11.9068C52.4706 12.8905 52.2124 14.009 52.2124 15.2487H53.2124ZM53.8834 18.152C53.4399 17.3099 53.2124 16.3461 53.2124 15.2487H52.2124C52.2124 16.4885 52.4707 17.6156 52.9987 18.618L53.8834 18.152ZM55.6878 20.113C54.9313 19.6489 54.33 18.9997 53.8834 18.152L52.9987 18.618C53.5236 19.6147 54.2459 20.4016 55.1649 20.9654L55.6878 20.113ZM58.2036 20.8101C57.2791 20.8101 56.4443 20.5771 55.6878 20.113L55.1649 20.9654C56.0839 21.5292 57.1006 21.8101 58.2036 21.8101V20.8101ZM60.3682 20.3183C59.7527 20.6416 59.0355 20.8101 58.2036 20.8101V21.8101C59.1739 21.8101 60.0548 21.6125 60.8332 21.2036L60.3682 20.3183ZM61.8279 19.0803C61.4857 19.5692 61.0049 19.9839 60.3682 20.3183L60.8332 21.2036C61.5905 20.8059 62.2009 20.2913 62.6471 19.6538L61.8279 19.0803ZM62.7375 21.12V19.3671H61.7375V21.12H62.7375ZM64.6663 20.62H62.2375V21.62H64.6663V20.62ZM64.1663 5.49121V21.12H65.1663V5.49121H64.1663ZM62.2375 5.99121H64.6663V4.99121H62.2375V5.99121ZM62.7375 11.1091V5.49121H61.7375V11.1091H62.7375ZM60.2697 10.2455C60.9472 10.5487 61.4667 10.9429 61.8461 11.4203L62.6289 10.798C62.1354 10.1771 61.4792 9.69129 60.6783 9.33276L60.2697 10.2455ZM58.2247 9.79281C58.9101 9.79281 59.5905 9.94147 60.2697 10.2455L60.6783 9.33276C59.8791 8.97503 59.06 8.79281 58.2247 8.79281V9.79281ZM55.6825 10.472C56.4386 10.0208 57.282 9.79281 58.2247 9.79281V8.79281C57.1117 8.79281 56.0896 9.06462 55.1701 9.61319L55.6825 10.472ZM53.8812 12.3813C54.3263 11.5555 54.9262 10.9232 55.6825 10.472L55.1701 9.61319C54.2509 10.1616 53.5273 10.9303 53.0009 11.9068L53.8812 12.3813ZM62.7375 15.2909C62.7375 14.4186 62.5573 13.6345 62.1775 12.9559L61.3049 13.4442C61.5869 13.9482 61.7375 14.558 61.7375 15.2909H62.7375ZM62.1788 17.6343C62.5572 16.9499 62.7375 16.1633 62.7375 15.2909H61.7375C61.7375 16.0236 61.587 16.638 61.3036 17.1504L62.1788 17.6343ZM60.6928 19.1873C61.3145 18.8274 61.8088 18.3034 62.1788 17.6343L61.3036 17.1504C61.0119 17.6781 60.6402 18.0623 60.1918 18.3219L60.6928 19.1873ZM58.7105 19.7192C59.4178 19.7192 60.0815 19.5412 60.6928 19.1873L60.1918 18.3219C59.7331 18.5874 59.2422 18.7192 58.7105 18.7192V19.7192ZM56.7369 19.1757C57.3526 19.5355 58.013 19.7192 58.7105 19.7192V18.7192C58.1971 18.7192 57.71 18.5861 57.2415 18.3123L56.7369 19.1757ZM55.241 17.6004C55.611 18.2775 56.1088 18.8086 56.7369 19.1757L57.2415 18.3123C56.7855 18.0458 56.4103 17.6547 56.1185 17.1209L55.241 17.6004ZM54.6834 15.2487C54.6834 16.1213 54.8638 16.9103 55.241 17.6004L56.1185 17.1209C55.8339 16.6002 55.6834 15.9812 55.6834 15.2487H54.6834ZM55.2447 12.922C54.8636 13.5948 54.6834 14.3766 54.6834 15.2487H55.6834C55.6834 14.5156 55.8341 13.9105 56.1148 13.4147L55.2447 12.922ZM56.7324 11.4026C56.1113 11.754 55.616 12.2663 55.2447 12.922L56.1148 13.4147C56.4053 12.9018 56.7759 12.5269 57.2249 12.2729L56.7324 11.4026ZM58.7105 10.8837C58.0054 10.8837 57.3432 11.057 56.7324 11.4026L57.2249 12.2729C57.6842 12.0131 58.1765 11.8837 58.7105 11.8837V10.8837ZM60.6928 11.4156C60.0815 11.0617 59.4178 10.8837 58.7105 10.8837V11.8837C59.2422 11.8837 59.7331 12.0155 60.1918 12.281L60.6928 11.4156ZM62.1775 12.9559C61.8071 12.2939 61.313 11.7747 60.6928 11.4156L60.1918 12.281C60.6417 12.5415 61.0135 12.9234 61.3049 13.4442L62.1775 12.9559Z" fill="black"/>
<path d="M71.0844 5.49121V21.12H68.6768V5.49121H71.0844Z" fill="black" stroke="black" stroke-linejoin="round"/>
<path fill-rule="evenodd" clip-rule="evenodd" d="M85.6757 16.199C85.732 15.847 85.7602 15.4528 85.7602 15.0163C85.7602 13.8899 85.5208 12.8937 85.0421 12.0278C84.5634 11.1619 83.8946 10.4896 83.0357 10.0109C82.1768 9.53215 81.1982 9.29279 80.1 9.29279C78.9595 9.29279 77.9493 9.53919 77.0693 10.032C76.1893 10.5248 75.5064 11.2253 75.0206 12.1334C74.5349 13.0416 74.292 14.0941 74.292 15.2909C74.292 16.4877 74.5419 17.5401 75.0418 18.4483C75.5416 19.3565 76.2315 20.0605 77.1115 20.5603C77.9915 21.0601 78.9877 21.3101 80.1 21.3101C81.4658 21.3101 82.6098 20.9686 83.532 20.2857C84.4542 19.6029 85.0914 18.7264 85.4434 17.6563H82.8456C82.3106 18.7405 81.3954 19.2825 80.1 19.2825C79.1989 19.2825 78.4386 19.0009 77.819 18.4377C77.1995 17.8745 76.8546 17.1283 76.7842 16.199H85.6757ZM82.2965 12.1229C82.916 12.6579 83.2328 13.3689 83.2469 14.256H76.8053C76.9179 13.3549 77.2699 12.6403 77.8613 12.1123C78.4526 11.5843 79.1637 11.3203 79.9944 11.3203C80.9096 11.3203 81.677 11.5878 82.2965 12.1229Z" fill="black"/>
<path d="M85.6757 16.199V16.699C85.9213 16.699 86.1306 16.5206 86.1694 16.278L85.6757 16.199ZM85.0421 12.0278L85.4797 11.7859L85.0421 12.0278ZM83.0357 10.0109L83.2791 9.57413L83.0357 10.0109ZM77.0693 10.032L76.825 9.59573V9.59573L77.0693 10.032ZM75.0206 12.1334L75.4615 12.3693L75.4615 12.3693L75.0206 12.1334ZM75.0418 18.4483L75.4798 18.2072L75.4798 18.2072L75.0418 18.4483ZM77.1115 20.5603L76.8646 20.9951H76.8646L77.1115 20.5603ZM83.532 20.2857L83.2345 19.8839L83.532 20.2857ZM85.4434 17.6563L85.9183 17.8125C85.9684 17.6602 85.9424 17.4931 85.8484 17.3631C85.7544 17.2332 85.6037 17.1563 85.4434 17.1563V17.6563ZM82.8456 17.6563V17.1563C82.6553 17.1563 82.4815 17.2644 82.3972 17.435L82.8456 17.6563ZM76.7842 16.199V15.699C76.645 15.699 76.5121 15.757 76.4175 15.8591C76.3229 15.9611 76.2751 16.098 76.2856 16.2368L76.7842 16.199ZM83.2469 14.256V14.756C83.3809 14.756 83.5092 14.7022 83.6032 14.6067C83.6972 14.5112 83.7489 14.382 83.7468 14.248L83.2469 14.256ZM76.8053 14.256L76.3091 14.194C76.2913 14.3363 76.3355 14.4794 76.4304 14.5869C76.5253 14.6944 76.6619 14.756 76.8053 14.756V14.256ZM77.8613 12.1123L78.1943 12.4853L78.1943 12.4853L77.8613 12.1123ZM85.2602 15.0163C85.2602 15.432 85.2333 15.7992 85.182 16.12L86.1694 16.278C86.2307 15.8949 86.2602 15.4736 86.2602 15.0163H85.2602ZM84.6045 12.2697C85.0369 13.0519 85.2602 13.9627 85.2602 15.0163H86.2602C86.2602 13.8172 86.0047 12.7356 85.4797 11.7859L84.6045 12.2697ZM82.7922 10.4476C83.5689 10.8805 84.1707 11.4851 84.6045 12.2697L85.4797 11.7859C84.956 10.8387 84.2202 10.0987 83.2791 9.57413L82.7922 10.4476ZM80.1 9.79279C81.1232 9.79279 82.0162 10.015 82.7922 10.4476L83.2791 9.57413C82.3374 9.04924 81.2733 8.79279 80.1 8.79279V9.79279ZM77.3136 10.4682C78.1096 10.0225 79.0337 9.79279 80.1 9.79279V8.79279C78.8853 8.79279 77.7889 9.05591 76.825 9.59573L77.3136 10.4682ZM75.4615 12.3693C75.9032 11.5434 76.5187 10.9133 77.3136 10.4682L76.825 9.59573C75.8598 10.1362 75.1095 10.9071 74.5797 11.8976L75.4615 12.3693ZM74.792 15.2909C74.792 14.1629 75.0204 13.1939 75.4615 12.3693L74.5797 11.8976C74.0493 12.8893 73.792 14.0252 73.792 15.2909H74.792ZM75.4798 18.2072C75.0265 17.3836 74.792 16.4165 74.792 15.2909H73.792C73.792 16.5588 74.0573 17.6967 74.6037 18.6894L75.4798 18.2072ZM77.3585 20.1255C76.5609 19.6725 75.9362 19.0365 75.4798 18.2072L74.6037 18.6894C75.147 19.6765 75.9022 20.4484 76.8646 20.9951L77.3585 20.1255ZM80.1 20.8101C79.0654 20.8101 78.1559 20.5785 77.3585 20.1255L76.8646 20.9951C77.8271 21.5418 78.9099 21.8101 80.1 21.8101V20.8101ZM83.2345 19.8839C82.4138 20.4916 81.3796 20.8101 80.1 20.8101V21.8101C81.5519 21.8101 82.8057 21.4457 83.8295 20.6876L83.2345 19.8839ZM84.9684 17.5001C84.6494 18.47 84.0752 19.2613 83.2345 19.8839L83.8295 20.6876C84.8332 19.9444 85.5334 18.9828 85.9183 17.8125L84.9684 17.5001ZM82.8456 18.1563H85.4434V17.1563H82.8456V18.1563ZM80.1 19.7825C80.8178 19.7825 81.4628 19.6319 82.0127 19.3062C82.5647 18.9792 82.9896 18.4944 83.294 17.8776L82.3972 17.435C82.1666 17.9024 81.8663 18.2307 81.5031 18.4458C81.1379 18.6621 80.6775 18.7825 80.1 18.7825V19.7825ZM77.4827 18.8077C78.2016 19.4613 79.0848 19.7825 80.1 19.7825V18.7825C79.3129 18.7825 78.6755 18.5406 78.1554 18.0678L77.4827 18.8077ZM76.2856 16.2368C76.3644 17.2778 76.7576 18.1486 77.4827 18.8077L78.1554 18.0678C77.6414 17.6005 77.3447 16.9788 77.2827 16.1613L76.2856 16.2368ZM85.6757 15.699H76.7842V16.699H85.6757V15.699ZM83.7468 14.248C83.7307 13.2319 83.3604 12.3811 82.6233 11.7445L81.9697 12.5013C82.4715 12.9347 82.7349 13.506 82.7469 14.2639L83.7468 14.248ZM76.8053 14.756H83.2469V13.756H76.8053V14.756ZM77.5283 11.7393C76.8337 12.3595 76.4344 13.1915 76.3091 14.194L77.3014 14.318C77.4014 13.5183 77.7062 12.9211 78.1943 12.4853L77.5283 11.7393ZM79.9944 10.8203C79.0473 10.8203 78.2159 11.1253 77.5283 11.7393L78.1943 12.4853C78.6893 12.0433 79.2801 11.8203 79.9944 11.8203V10.8203ZM82.6233 11.7445C81.9021 11.1216 81.0144 10.8203 79.9944 10.8203V11.8203C80.8048 11.8203 81.4518 12.054 81.9697 12.5013L82.6233 11.7445Z" fill="black"/>
<defs>
<filter id="filter0_b_0_1518" x="83.287" y="-7.35311" width="23.506" height="23.5063" filterUnits="userSpaceOnUse" color-interpolation-filters="sRGB">
<feFlood flood-opacity="0" result="BackgroundImageFix"/>
<feGaussianBlur in="BackgroundImageFix" stdDeviation="5.43656"/>
<feComposite in2="SourceAlpha" operator="in" result="effect1_backgroundBlur_0_1518"/>
<feBlend mode="normal" in="SourceGraphic" in2="effect1_backgroundBlur_0_1518" result="shape"/>
</filter>
</defs>
</svg>
