<svg width="28" height="28" viewBox="0 0 28 28" fill="none" xmlns="http://www.w3.org/2000/svg">
<path d="M10.2529 20.741H17.8077V7.10452H10.2529V20.741V20.741Z" fill="black"/>
<path d="M10.7335 13.9227C10.7295 11.2646 11.945 8.75159 14.0313 7.10451C10.4757 4.30984 5.36941 4.71668 2.30118 8.03909C-0.767059 11.3615 -0.767059 16.484 2.30118 19.8064C5.36941 23.1288 10.4757 23.5356 14.0313 20.741C11.9452 19.0937 10.7298 16.5808 10.7335 13.9227" fill="#4C4C4C"/>
<path d="M27.9999 13.9227C28.0181 17.2365 26.1361 20.2677 23.1581 21.7213C20.1801 23.1749 16.6327 22.7939 14.0313 20.741C16.1143 19.0912 17.3289 16.5799 17.3289 13.9227C17.3289 11.2656 16.1143 8.75423 14.0313 7.10451C16.6327 5.05162 20.1801 4.67057 23.1581 6.12417C26.1361 7.57777 28.0181 10.609 27.9999 13.9227Z" fill="#363636"/>
</svg>
