<svg width="16" height="16" viewBox="0 0 16 16" fill="none" xmlns="http://www.w3.org/2000/svg">
<path d="M4.90574 15L5.15065 13.4648L4.60509 13.4523H2L3.81041 2.12385C3.81603 2.08966 3.83429 2.05777 3.86098 2.03512C3.88768 2.01248 3.92186 2 3.95745 2H8.35001C9.80826 2 10.8146 2.29947 11.34 2.89054C11.5864 3.16783 11.7432 3.45759 11.8191 3.77647C11.8987 4.11106 11.9001 4.51081 11.8224 4.99836L11.8168 5.03395V5.34636L12.0631 5.48407C12.2705 5.59268 12.4354 5.71699 12.5618 5.85933C12.7725 6.09641 12.9088 6.39772 12.9664 6.75496C13.0259 7.12236 13.0062 7.55954 12.9088 8.0545C12.7964 8.62385 12.6147 9.11973 12.3693 9.52549C12.1436 9.89936 11.8561 10.2095 11.5147 10.4498C11.1888 10.6781 10.8015 10.8514 10.3637 10.9623C9.93938 11.0713 9.45564 11.1263 8.92507 11.1263H8.58322C8.33877 11.1263 8.10135 11.2132 7.91497 11.369C7.72812 11.5279 7.60449 11.7451 7.56656 11.9827L7.5408 12.1209L7.1081 14.8267L7.08843 14.9261C7.08328 14.9575 7.07439 14.9732 7.06127 14.9838C7.04957 14.9935 7.03271 15 7.01632 15H4.90574V15Z" fill="#212121"/>
<path d="M12.8263 5V5V5C12.8133 5.07952 12.7985 5.16082 12.7818 5.24434C12.2075 8.06575 10.243 9.04043 7.73401 9.04043H6.45652C6.14968 9.04043 5.89112 9.25366 5.8433 9.54331V9.54331V9.54331L5.18924 13.5131L5.00402 14.6384C4.97292 14.8285 5.12611 15 5.32664 15H7.59242C7.86073 15 8.08866 14.8134 8.1309 14.5602L8.15318 14.45L8.57979 11.8592L8.60717 11.717C8.64895 11.4629 8.87734 11.2763 9.14565 11.2763H9.48452C11.6797 11.2763 13.3982 10.4234 13.9005 7.95513C14.1103 6.92403 14.0017 6.06308 13.4465 5.45757C13.2785 5.27499 13.07 5.1235 12.8263 5Z" fill="#464646"/>
<path d="M12.3979 4.19844C12.3099 4.17386 12.2192 4.15152 12.1261 4.1314C12.0326 4.11174 11.9367 4.09431 11.8381 4.07911C11.4928 4.02548 11.1145 4 10.7092 4H7.28804C7.20382 4 7.12378 4.01832 7.05212 4.0514C6.89437 4.12425 6.77711 4.26772 6.74872 4.44337L6.02094 8.87083L6 9C6.04793 8.70859 6.30712 8.49406 6.6147 8.49406H7.8953C10.4104 8.49406 12.3797 7.51301 12.9553 4.67489C12.9725 4.59086 12.987 4.50907 13 4.42907C12.8544 4.35488 12.6966 4.29141 12.5268 4.23733C12.4849 4.22392 12.4416 4.21096 12.3979 4.19844V4.19844Z" fill="black"/>
<path d="M6.56149 4.44346C6.59043 4.26769 6.71 4.12411 6.87084 4.05166C6.94438 4.01856 7.02552 4.00022 7.11139 4.00022H10.5997C11.0129 4.00022 11.3986 4.02572 11.7507 4.07939C11.8513 4.0946 11.949 4.11204 12.0444 4.13172C12.1393 4.15184 12.2318 4.17421 12.3215 4.19881C12.3661 4.21133 12.4102 4.2243 12.4534 4.23727C12.6266 4.29139 12.7874 4.35535 12.9359 4.42915C13.1105 3.37943 12.9345 2.6647 12.3324 2.01752C11.6686 1.30503 10.4706 1 8.9376 1H4.48713C4.17399 1 3.90686 1.21469 3.85847 1.50675L2.00474 12.5832C1.96821 12.8023 2.14755 13 2.38194 13H5.12956L5.81943 8.87402L6.56149 4.44346Z" fill="#212121"/>
</svg>
