<svg width="17" height="17" viewBox="0 0 17 17" fill="none" xmlns="http://www.w3.org/2000/svg">
<path fill-rule="evenodd" clip-rule="evenodd" d="M13.7202 0H2.94642C1.30951 0 0 1.30951 0 2.94642V13.7202C0 15.3572 1.30951 16.6667 2.94642 16.6667H13.7202C15.3572 16.6667 16.6667 15.3572 16.6667 13.7202V2.94642C16.6667 1.30951 15.3572 0 13.7202 0ZM10.0134 9.18212C10.6678 9.09974 12.5661 8.86077 13.2906 9.61309C13.4989 9.85117 13.5882 10.1786 13.4394 10.4761C13.3501 10.744 13.0822 11.0416 12.368 11.0416C11.8322 11.0416 10.8203 10.8928 9.65963 9.88093C8.67747 10.0595 7.69531 10.3572 7.07031 10.5654C6.32624 11.8453 5.25482 13.3631 4.15365 13.3631C3.88574 13.3631 3.6179 13.2738 3.40957 13.0952C3.20124 12.887 3.11198 12.619 3.17148 12.3512C3.32031 11.4583 5.13581 10.6249 5.99889 10.2679C6.78116 8.78715 7.09139 7.90965 7.39726 7.04449L7.45723 6.87507C6.89173 5.59531 6.74297 4.34531 7.10006 3.72025C7.24889 3.48216 7.5168 3.30365 7.81439 3.30365C8.64779 3.30365 8.94538 4.10716 8.94538 4.85124C8.91556 5.71426 8.73704 6.51784 8.4692 7.32142L8.48816 7.35306C8.6818 7.67642 9.17852 8.50592 9.89772 9.19642C9.92995 9.19263 9.96869 9.18775 10.0132 9.18215L10.0134 9.18212ZM11.7727 10.4167C12.249 10.5357 12.5167 10.3274 12.5465 10.1191C12.6061 9.82142 12.368 9.67259 12.1299 9.61308C11.5048 9.49401 10.6418 9.58327 10.2549 9.64284C10.7013 10 11.2072 10.2679 11.7727 10.4167ZM7.5763 3.98809C7.63581 3.89883 7.72513 3.83932 7.81439 3.83932C8.08223 3.83932 8.14173 4.16667 8.14173 4.43457C8.11198 5.05964 7.9929 5.68457 7.78464 6.27982C7.33815 5.08932 7.42747 4.25592 7.5763 3.98809ZM8.2013 8.09518C8.08229 8.45234 7.75488 9.28574 7.5168 9.76191C7.94354 9.61963 8.44467 9.49863 8.77897 9.41791L8.779 9.41791C9.00422 9.36353 9.15371 9.32743 9.15371 9.31543C8.91556 9.07734 8.46914 8.54154 8.2013 8.09518ZM5.76081 10.9524C5.0763 12.0833 4.36198 12.7976 3.97507 12.7976C3.91556 12.7976 3.85599 12.7678 3.79648 12.7381C3.70716 12.6785 3.67741 12.5893 3.70716 12.4702C3.79648 12.0536 4.57031 11.4881 5.76081 10.9524Z" fill="black"/>
</svg>
