<svg width="63" height="84" viewBox="0 0 63 84" fill="none" xmlns="http://www.w3.org/2000/svg">
<path d="M28.7184 0.0201276C21.9099 0.708622 15.7638 4.48826 12.4268 10.589C8.97688 16.8961 9.23895 24.642 12.998 30.7707C20.9025 43.6581 40.0907 44.39 49.5409 32.8438C52.581 29.1295 54.6842 24.5765 53.7942 19.6745C53.0647 15.6567 49.7375 11.69 45.5596 11.1114C42.9118 10.7446 39.9156 11.7528 39.2445 14.7097C38.6942 17.1341 39.985 20.6533 42.8301 21.0473C43.0557 21.0786 43.2755 21.1284 43.4989 21.1644C44.1718 21.2726 43.2613 21.1064 43.3145 21.0468C43.0404 21.354 44.6455 21.101 43.3661 21.0393L43.5255 21.2034C43.7242 21.4201 43.7372 21.423 43.5644 21.2121C43.3546 21.3044 43.6328 20.9569 43.6835 21.4546C43.6758 21.3792 43.4413 20.713 43.6291 21.289C43.701 21.5093 43.7685 21.7314 43.8157 21.9588C43.6934 21.3693 43.7895 21.8227 43.7683 22.1672C43.7686 22.1628 43.6498 23.031 43.7372 22.5955C43.8409 22.0787 43.5407 23.1874 43.5122 23.2811C43.3519 23.8085 43.4621 23.5092 43.5157 23.3763C43.41 23.6384 43.2627 23.8932 43.1285 24.1413C42.861 24.6359 42.5595 25.1052 42.2465 25.5715C41.9236 26.0525 42.2085 25.651 42.2807 25.5577C42.019 25.8954 41.7283 26.2131 41.437 26.5247C41.0861 26.8999 40.7199 27.2592 40.3386 27.6032C40.1481 27.7751 39.9552 27.9446 39.7574 28.1082C39.8438 28.0367 40.2556 27.7434 39.7797 28.0855C38.8082 28.7841 37.7692 29.3973 36.679 29.8903C36.1346 30.1365 36.6221 29.9051 36.7233 29.8678C36.4826 29.9565 36.2414 30.0426 35.9979 30.1232C35.511 30.2845 35.0184 30.4251 34.5196 30.5444C34.2765 30.6026 32.7787 30.8377 33.613 30.7511C33.0011 30.8146 32.3857 30.8427 31.7707 30.8403C31.2372 30.8382 30.705 30.8117 30.1739 30.7609C29.2917 30.6766 30.8238 30.8979 29.9552 30.7214C29.6938 30.6683 29.432 30.6193 29.1721 30.5584C28.6535 30.4368 28.1391 30.2916 27.6335 30.1237C27.381 30.0398 27.1292 29.9507 26.8817 29.8528C26.0741 29.5332 27.4163 30.1312 26.6449 29.7325C26.0923 29.4469 25.5469 29.1556 25.0224 28.8199C24.8638 28.7183 23.8739 27.9679 24.3472 28.3639C23.9387 28.0221 23.5484 27.6543 23.1785 27.2708C22.9929 27.0785 22.8175 26.8776 22.6391 26.6788C22.4168 26.4095 22.4059 26.4099 22.6065 26.6802L22.2977 26.244C22.0025 25.798 21.7166 25.3472 21.4595 24.8776C21.3683 24.711 20.8275 23.5584 21.0768 24.1712C20.843 23.5964 20.6624 22.9926 20.5083 22.3926C20.4432 22.1393 20.2012 20.6584 20.2747 21.4018C20.2223 20.8718 20.202 20.3357 20.2097 19.8033C20.2143 19.4805 20.3358 18.3079 20.1934 19.2233C20.2781 18.6788 20.4026 18.1398 20.5534 17.6101C20.6325 17.3324 21.1266 16.0301 20.764 16.8467C21.0195 16.2713 21.319 15.7115 21.6458 15.174C21.7688 14.9715 21.898 14.7729 22.03 14.5763C22.0819 14.499 22.6451 13.7497 22.3295 14.1423C21.9951 14.5584 22.5023 13.9596 22.5302 13.9307C22.7497 13.703 22.9562 13.4633 23.1795 13.2389C23.3749 13.0426 24.6493 11.9436 23.9299 12.4932C24.7997 11.8287 25.7711 11.2575 26.7709 10.8146C25.9497 11.1784 27.4335 10.6293 27.7592 10.5434C28.0739 10.4605 29.714 10.2235 28.7184 10.3242C31.3822 10.0548 33.9849 8.14761 33.8521 5.17216C33.7379 2.61241 31.5799 -0.269209 28.7184 0.0201482L28.7184 0.0201276Z" fill="#01010C"/>
<path d="M10.348 75.8046C10.2483 70.2203 9.80533 63.3022 13.728 58.7818C17.6523 54.2596 25.2054 55.4013 30.498 55.4532C34.1967 55.4895 37.8955 55.5258 41.5942 55.5621C42.3631 55.5696 43.1514 55.5216 43.9181 55.5924C46.3936 55.8208 43.6565 55.6877 44.2407 55.1381C44.2552 55.1245 45.6374 58.8478 45.6934 59.0172C48.0462 66.1443 50.3991 73.2715 52.752 80.3987C54.8429 86.7325 64.8185 84.0176 62.7088 77.627C61.2448 73.1924 59.7808 68.7577 58.3168 64.323C56.8839 59.9824 55.7496 55.3565 53.8361 51.2034C51.7708 46.7209 47.7291 45.2687 43.1074 45.151C38.5714 45.0355 34.0265 45.0619 29.4893 45.0174C21.3865 44.9379 12.3616 44.8585 6.42668 51.4096C0.356757 58.1096 -0.131483 67.1874 0.0223284 75.8046C0.141941 82.5058 10.468 82.5274 10.348 75.8046Z" fill="#01010C"/>
</svg>
