<svg width="16" height="17" viewBox="0 0 16 17" fill="none" xmlns="http://www.w3.org/2000/svg">
<path fill-rule="evenodd" clip-rule="evenodd" d="M15.7605 10.4354C14.6919 14.7211 10.3507 17.3294 6.06401 16.2606C4.32529 15.8271 2.8626 14.8547 1.80964 13.5658L2.99623 12.9795L4.70386 12.1357L12.9582 8.05627C12.9861 8.2639 13.0001 8.47306 13.0002 8.68244C12.9991 10.3734 12.074 11.937 10.5694 12.7912C9.06484 13.6454 7.20615 13.6622 5.68547 12.8352L5.62547 12.866L4.56586 13.3898C6.39109 14.675 8.80529 14.8588 10.815 13.8657C12.8247 12.8725 14.0903 10.8701 14.091 8.68244C14.091 8.53288 14.085 8.38332 14.0736 8.23551C14.0404 7.80991 14.2739 7.40659 14.6658 7.21245L15.1818 6.95756V5.77273L3.98685 11.3012L3.01003 11.7848L1.1849 12.6868C0.0999509 10.9203 -0.301766 8.73586 0.239641 6.56565C1.30775 2.2794 5.64897 -0.329101 9.93442 0.739399C11.7021 1.18004 13.1844 2.17729 14.2411 3.49773L13.1802 4.02255L11.4726 4.86613L3.22663 8.93856C3.19875 8.73236 3.18472 8.52462 3.18463 8.31665C3.18693 6.62823 4.11093 5.06718 5.6133 4.21353C7.11567 3.35988 8.97185 3.34123 10.4921 4.16451L11.4696 3.68163L11.6154 3.60949C9.7897 2.32466 7.37507 2.1413 5.36538 3.13489C3.35568 4.12847 2.09058 6.13107 2.09082 8.31839C2.09082 8.46655 2.09662 8.61413 2.10822 8.76112C2.14144 9.18677 1.90766 9.59009 1.51541 9.78389L1 10.0387V11.2273L2.51742 10.4774L3.00883 10.2342L3.49304 9.99507L12.186 5.7004L13.1628 5.2181L14.856 4.38138C15.91 6.13597 16.2948 8.29262 15.7605 10.4354Z" fill="black"/>
</svg>
