<?xml version="1.0" encoding="UTF-8"?>
<svg width="18px" height="18px" viewBox="0 0 18 18" version="1.1" xmlns="http://www.w3.org/2000/svg" xmlns:xlink="http://www.w3.org/1999/xlink">
    <title>18x18</title>
    <g id="18x18" stroke="none" stroke-width="1" fill="none" fill-rule="evenodd">
        <g id="Group" transform="translate(1.510000, 1.510000)" fill="#000000" fill-rule="nonzero">
            <path d="M4.957031,12.199181 C5.847661,12.667981 6.691401,12.902381 7.488281,12.902381 C8.285161,12.902381 9.117191,12.667981 9.984381,12.199181 C10.874981,11.730481 11.542981,11.156281 11.988281,10.476581 C11.964881,9.820281 11.437481,9.269531 10.406281,8.824221 C9.375001,8.378901 8.402341,8.156251 7.488281,8.156251 C6.574221,8.156251 5.601561,8.378901 4.570311,8.824221 C3.539061,9.246091 3.011721,9.796881 2.988281,10.476581 C3.433591,11.156281 4.089841,11.730481 4.957031,12.199181 Z M9.070311,2.917971 C8.625001,2.472651 8.097661,2.250001 7.488281,2.250001 C6.878901,2.250001 6.351561,2.472651 5.906251,2.917971 C5.460941,3.363281 5.238281,3.890621 5.238281,4.500001 C5.238281,5.109371 5.460941,5.636721 5.906251,6.082031 C6.351561,6.527341 6.878901,6.750001 7.488281,6.750001 C8.097661,6.750001 8.625001,6.527341 9.070311,6.082031 C9.515581,5.636721 9.738281,5.109371 9.738281,4.500001 C9.738281,3.890621 9.515581,3.363281 9.070311,2.917971 Z M2.179691,2.214841 C3.656251,0.738281 5.425781,6.66133815e-16 7.488281,6.66133815e-16 C9.550781,6.66133815e-16 11.308581,0.738281 12.761681,2.214841 C14.238281,3.667971 14.976581,5.425781 14.976581,7.488281 C14.976581,9.550781 14.238281,11.320281 12.761681,12.796881 C11.308581,14.249981 9.550781,14.976581 7.488281,14.976581 C5.425781,14.976581 3.656251,14.249981 2.179691,12.796881 C0.726561,11.320281 6.66133815e-16,9.550781 6.66133815e-16,7.488281 C6.66133815e-16,5.425781 0.726561,3.667971 2.179691,2.214841 Z" id="Shape"></path>
        </g>
    </g>
</svg>