<svg width="18" height="17" viewBox="0 0 18 17" fill="none" xmlns="http://www.w3.org/2000/svg">
<path fill-rule="evenodd" clip-rule="evenodd" d="M3.36044 0H14.4003C16.0741 0 17.4274 1.35328 17.4274 3.02707V13.6396C17.4274 15.3134 16.0741 16.6667 14.4003 16.6667H3.36044C1.68665 16.6667 0.333374 15.3134 0.333374 13.6396V3.02707C0.333374 1.35328 1.68665 0 3.36044 0ZM4.17953 4.35897V11.688C4.17953 11.7521 4.20802 11.7806 4.265 11.7806H5.61827H5.64676C5.69662 11.7735 5.73223 11.7308 5.72511 11.6809V9.39459C5.86044 9.39459 5.96015 9.39459 6.03138 9.40171C6.1026 9.40883 6.21656 9.40883 6.3875 9.40883C6.97155 9.40883 7.50574 9.34473 7.99007 9.16667C8.45303 8.99573 8.85189 8.69658 9.13679 8.29772C9.42169 7.89886 9.56414 7.39316 9.56414 6.78063C9.56414 6.46011 9.50716 6.15385 9.40032 5.8547C9.28636 5.54843 9.1083 5.27066 8.88038 5.04274C8.60973 4.7792 8.28209 4.57977 7.92597 4.45869C7.52711 4.30912 7.04278 4.23789 6.45873 4.23789C6.24505 4.23789 6.03138 4.23789 5.81058 4.24501C5.70399 4.24845 5.60071 4.25023 5.50075 4.25195C5.39367 4.2538 5.29039 4.25558 5.19092 4.25926C5.09769 4.26271 5.0078 4.26449 4.92045 4.26622L4.92035 4.26622H4.92033H4.92031C4.82754 4.26806 4.73763 4.26984 4.64961 4.2735C4.4858 4.28063 4.37184 4.28063 4.25075 4.28063C4.2009 4.28063 4.17953 4.30912 4.17953 4.35897ZM5.73223 8.04843V5.65527C5.78209 5.64815 5.88181 5.64103 6.02426 5.64815C6.15958 5.64103 6.3234 5.64103 6.50859 5.64103C6.80061 5.6339 7.08551 5.67664 7.34904 5.78348C7.5556 5.86182 7.72654 6.00427 7.84762 6.18946C7.96158 6.38177 8.01856 6.60256 8.01144 6.82336C8.01144 7.13675 7.94021 7.37892 7.79064 7.55698C7.63394 7.73504 7.43451 7.87037 7.20659 7.93447C6.94306 8.01994 6.66528 8.06268 6.38751 8.06268H6.01001C5.93068 8.06268 5.84521 8.05654 5.7536 8.04996L5.73223 8.04843ZM13.3248 7.3718C13.567 7.42165 13.7949 7.5 14.0086 7.61396C14.0371 7.62821 14.0727 7.62821 14.1368 7.61396C14.1582 7.59972 14.1724 7.57123 14.1724 7.54274V6.38177C14.1724 6.35328 14.1653 6.32479 14.1582 6.2963C14.1439 6.26781 14.1154 6.23932 14.0869 6.23219C13.8946 6.15385 13.6881 6.09687 13.4744 6.06838C13.1824 6.02564 12.8832 6.00427 12.5912 6.00427C12.0855 6.00427 11.6653 6.08262 11.3305 6.25356C11.0243 6.39601 10.7607 6.62393 10.5827 6.90883C10.426 7.17236 10.3405 7.46439 10.3405 7.77066C10.3334 8.01994 10.3904 8.26923 10.5043 8.49715C10.6396 8.73932 10.8248 8.94587 11.0456 9.10256C11.359 9.31624 11.6938 9.48718 12.057 9.61539C12.406 9.75071 12.6411 9.85755 12.755 9.95014C12.869 10.0427 12.926 10.1353 12.926 10.235C12.926 10.3632 12.8476 10.4843 12.7337 10.5342C12.6055 10.5983 12.4131 10.6339 12.1425 10.6339C11.8576 10.6339 11.5727 10.5983 11.302 10.5271C10.9886 10.4558 10.6966 10.3419 10.4188 10.1781C10.3975 10.1638 10.3761 10.1567 10.3547 10.1709C10.3334 10.1852 10.3263 10.2137 10.3263 10.235V11.4744C10.3191 11.5313 10.3547 11.5812 10.4046 11.6097C10.6325 11.7165 10.8818 11.7949 11.1311 11.8376C11.4516 11.9017 11.7721 11.9302 12.0998 11.9302C12.6126 11.9302 13.0399 11.8519 13.3889 11.7023C13.7094 11.5741 13.9872 11.3533 14.1867 11.0684C14.3718 10.7906 14.4716 10.4558 14.4644 10.1211C14.4716 9.86467 14.4146 9.61539 14.3006 9.38746C14.1653 9.1453 13.973 8.94587 13.7379 8.7963C13.3961 8.58262 13.0257 8.40456 12.6411 8.27635C12.4701 8.20513 12.2992 8.12678 12.1354 8.04131C12.0428 7.99145 11.9573 7.92735 11.8932 7.849C11.8505 7.79202 11.822 7.72792 11.822 7.66382C11.822 7.59972 11.8433 7.52849 11.879 7.47151C11.9288 7.40029 12.0072 7.35043 12.0998 7.32906C12.2351 7.29345 12.3847 7.27208 12.5271 7.2792C12.7978 7.2792 13.0613 7.31482 13.3248 7.3718Z" fill="black"/>
</svg>
