<svg width="79" height="92" viewBox="0 0 79 92" fill="none" xmlns="http://www.w3.org/2000/svg">
<path d="M44.7628 69.8861C54.7677 54.6476 64.7727 39.4091 74.7777 24.1706C77.2163 20.4563 79.1747 17.1403 78.9878 12.5686C78.894 10.2744 79.0876 7.9865 78.5574 5.72306C77.1139 -0.438968 70.7986 -0.701828 65.7082 0.693995C63.9256 1.18279 62.1103 1.53081 60.434 2.39226C58.7426 3.26146 57.266 4.63245 55.9599 5.99413C52.9289 9.15383 49.9862 12.4012 46.9822 15.5868C40.8588 22.0803 34.6904 28.5314 28.5521 35.0109C25.3945 38.3439 22.2448 41.6845 19.1133 45.042C17.5771 46.689 16.2848 47.8638 14.3698 49.0524C12.5446 50.1854 10.4388 51.2071 8.87215 52.695C5.49333 55.9039 6.71914 60.2609 9.99885 62.9231C11.7729 64.3632 13.5738 65.7713 15.3649 67.1902C20.2894 71.0915 25.2242 74.9799 30.1421 78.8895C32.9372 81.1117 36.2477 84.4866 40.0909 82.3874C42.318 81.1709 42.9077 78.7852 43.4197 76.5111C43.9823 74.0125 44.5448 71.5139 45.1073 69.0153L44.0963 70.7458L44.148 70.6798C45.4534 69.0121 45.7785 66.7601 44.148 65.1337C42.7888 63.778 39.902 63.4549 38.5879 65.1337C37.2641 66.8248 37.0592 68.9992 36.5968 71.053C36.3718 72.0524 36.1468 73.0518 35.9218 74.0513C35.8093 74.5509 35.7004 75.0516 35.5842 75.5504C35.2269 77.0854 35.2673 75.6318 36.5183 75.3444H38.6087C37.5661 75.2024 36.0552 73.6234 34.9184 72.7208C33.1519 71.3183 31.3832 69.9185 29.6143 68.5191C25.8627 65.551 22.108 62.587 18.3623 59.6117C17.9414 59.2774 14.8772 56.3526 14.4757 56.4691C14.269 56.529 14.4141 58.4497 14.2594 58.3845C14.2549 58.3826 14.9814 57.9094 15.0795 57.8478C15.8374 57.3717 16.6004 56.9037 17.3608 56.4318C19.0211 55.4012 20.9227 54.4719 22.3277 53.1104C27.6176 47.9842 32.4598 42.2923 37.5348 36.9495C42.7157 31.495 47.9083 26.0514 53.0671 20.5761C55.6039 17.8837 58.1288 15.1805 60.6476 12.4714C61.5561 11.4943 62.4661 10.4055 63.5686 9.64259C64.6747 8.87721 65.931 8.80115 67.2052 8.4268C68.2279 8.12637 69.5351 7.79115 70.1854 7.74141C70.3796 7.72655 71.582 7.67706 71.1029 7.69347C70.4954 7.71429 71.2381 7.6957 71.1924 7.71993C71.539 7.83041 71.5551 7.8223 71.2408 7.6956C70.9815 7.57303 70.9434 7.55968 71.1266 7.6556C71.1848 7.70986 70.6237 7.12689 71.1631 7.71774C70.7865 7.30523 70.8505 7.37571 70.7919 7.16317C70.8765 7.46989 70.9561 7.77523 71.0319 8.0846C71.0828 8.29209 71.0926 8.81355 71.0159 7.92872C71.0342 8.13996 71.0597 8.3522 71.0666 8.56422C71.127 10.415 71.4624 12.6433 71.1709 14.4485C70.9441 15.8534 69.9942 17.1326 69.2411 18.3004C68.1977 19.9183 67.1288 21.5205 66.0722 23.1299C56.7058 37.3958 47.3395 51.6616 37.9731 65.9274C35.1926 70.1623 41.9983 74.0966 44.7628 69.8861L44.7628 69.8861Z" fill="#01010C"/>
<path d="M34.7836 29.0029C28.2077 29.2232 21.6318 29.4435 15.056 29.6638C11.8902 29.7698 8.58991 29.8411 5.88783 31.7168C3.49523 33.3777 1.91413 35.788 0.510156 38.2863C-0.258959 39.6548 -0.238058 41.969 1.12492 43.0386C5.36557 46.3665 9.60624 49.6944 13.8469 53.0223C15.5141 54.3306 17.7803 54.6449 19.407 53.0223C20.7706 51.6621 21.085 48.7931 19.407 47.4763C15.1664 44.1484 10.9257 40.8205 6.68503 37.4926L7.29979 42.2449C8.18868 40.6632 9.19967 38.6384 10.6344 37.9998C12.5543 37.1452 15.3786 37.4963 17.5219 37.4244C23.2758 37.2317 29.0297 37.0389 34.7836 36.8462C36.9065 36.7751 38.7152 35.0947 38.7152 32.9245C38.7152 30.8548 36.9155 28.9315 34.7836 29.0029V29.0029Z" fill="#01010C"/>
<path d="M50.6093 49.0165L54.1032 65.2592C54.3836 66.5626 54.6651 67.8658 54.9443 69.1695C55.1746 70.2444 55.5658 71.5031 55.3413 72.6222C55.0253 74.1969 53.1788 75.7235 51.968 76.8622H57.5281C53.263 73.5655 48.998 70.2688 44.7329 66.9721C43.0563 65.6761 40.8072 65.3418 39.1728 66.9721C37.818 68.3235 37.4847 71.2133 39.1728 72.5181C43.4379 75.8148 47.7029 79.1116 51.968 82.4083C53.6873 83.7372 55.8213 84.0136 57.5281 82.4083C59.6988 80.3667 61.8141 78.1109 62.7382 75.2113C63.7556 72.0189 62.8835 68.7434 62.2031 65.5805C60.8659 59.3641 59.5288 53.1478 58.1916 46.9315C57.746 44.8598 55.3181 43.6544 53.3552 44.1924C51.2073 44.7812 50.1623 46.9388 50.6093 49.0165L50.6093 49.0165Z" fill="#01010C"/>
<path d="M21.5424 66.5099C16.6933 67.1882 11.9341 68.5442 9.0485 72.8133C7.66648 74.858 7.45301 77.306 7.11995 79.6739C6.77506 82.1259 6.43018 84.578 6.08528 87.03C5.88315 88.467 6.00762 89.7595 7.09638 90.8455C8.0731 91.8198 9.58351 92.2493 10.9216 91.854C11.2416 91.7595 11.5617 91.6756 11.8893 91.6115C12.9193 91.4099 11.2989 91.6076 12.1196 91.5774C12.6989 91.5561 13.2753 91.5144 13.8558 91.5118C15.1111 91.5061 16.3678 91.5696 17.6221 91.4931C20.7323 91.3035 23.8657 90.3523 25.9756 87.9279C28.0285 85.569 29.0554 82.7133 29.28 79.6192C29.507 76.4928 28.6819 73.3337 27.8754 70.3393C27.3419 68.3584 25.0508 66.9508 23.039 67.6002C21.0014 68.258 19.7213 70.3014 20.293 72.4243C20.6282 73.6686 20.9626 74.9146 21.2087 76.1801C21.2727 76.5092 21.3242 76.8399 21.3811 77.1702C21.4631 77.6459 21.3486 76.5181 21.3834 77.2873C21.4138 77.9562 21.4659 78.6145 21.4359 79.2852C21.4238 79.5562 21.3586 79.8707 21.3671 80.1419L21.4318 79.6216C21.4022 79.7957 21.3683 79.9688 21.3301 80.1411C21.2239 80.6192 21.0629 81.0705 20.9147 81.5359C20.7708 81.9874 21.2984 80.8232 20.9446 81.4446C20.8151 81.672 20.7029 81.9081 20.5654 82.1313C20.498 82.2426 20.427 82.3515 20.3526 82.4582C20.1856 82.6976 20.262 82.6063 20.5817 82.1844C20.3993 82.3277 20.2298 82.592 20.063 82.7577L19.8767 82.9354C19.5575 83.2087 19.6231 83.1674 20.0733 82.8113C20.0757 82.8926 19.5881 83.1276 19.5269 83.1628C19.4079 83.2334 19.286 83.2988 19.1613 83.3591C19.6307 83.1769 19.7288 83.1371 19.4556 83.2397C19.2341 83.3086 19.0176 83.3918 18.7933 83.4529C18.6929 83.4803 18.0799 83.7074 17.9774 83.6328C18.5146 83.5701 18.6314 83.5558 18.3277 83.5897C18.1873 83.6062 18.0466 83.6197 17.9056 83.6302C17.3336 83.6758 16.7592 83.6866 16.1856 83.6876C13.7166 83.6917 11.2312 83.582 8.8312 84.2909L13.6675 89.115C13.9723 86.9481 14.2771 84.7813 14.5819 82.6144C14.7332 81.539 14.8761 80.4621 15.0373 79.3882C15.1105 78.9002 15.1904 78.4119 15.3127 77.9332C15.342 77.8185 15.5613 76.922 15.4108 77.4973C15.2839 77.9826 15.5 77.3293 15.5616 77.2197C15.6477 77.0664 15.7458 76.9215 15.8381 76.772C16.2704 76.0718 15.4489 77.1473 15.7893 76.8385C15.9773 76.6678 16.574 76.2345 16.6448 76.0071C16.231 76.3139 16.1419 76.382 16.3775 76.2117C16.4493 76.1585 16.5226 76.1075 16.5973 76.0585C16.7825 75.9332 16.9715 75.8136 17.165 75.7014C17.3196 75.6117 17.4768 75.5257 17.6357 75.444C17.6728 75.4249 18.459 75.0603 17.918 75.2953C17.3645 75.5357 18.2016 75.1994 18.3167 75.1602C18.5678 75.0745 18.8218 74.9972 19.077 74.9247C19.5375 74.7939 20.0034 74.6833 20.472 74.5856C21.5172 74.3678 22.5758 74.2209 23.6327 74.0731C24.5362 73.9467 25.5454 73.0156 25.9824 72.2708C26.4755 71.4302 26.6845 70.1914 26.3787 69.249C26.0708 68.3001 25.4813 67.3845 24.5719 66.9053C23.5713 66.378 22.6519 66.3547 21.5424 66.5099L21.5424 66.5099Z" fill="#01010C"/>
<path d="M59.9811 20.4512L59.9812 20.4513C60.4404 20.7434 60.9361 20.9015 61.4684 20.9256C62.0001 21.0446 62.5318 21.0208 63.0634 20.8543C63.5839 20.7306 64.0374 20.4921 64.4237 20.1388C64.8591 19.857 65.2025 19.4832 65.4539 19.0174L65.8571 18.0626C66.0476 17.3542 66.0476 16.6459 65.8571 15.9375L65.4539 14.9827C65.0983 14.3821 64.62 13.9041 64.0189 13.5488L64.0188 13.5487C63.5596 13.2566 63.0639 13.0985 62.5316 13.0744C61.9999 12.9554 61.4682 12.9792 60.9366 13.1457C60.4161 13.2694 59.9626 13.5079 59.5763 13.8612C59.1409 14.143 58.7975 14.5168 58.5461 14.9826L58.1429 15.9374C57.9524 16.6458 57.9524 17.3541 58.1429 18.0625L58.5461 19.0173C58.9017 19.6179 59.38 20.0959 59.9811 20.4512Z" fill="#01010C"/>
</svg>
