<svg width="16" height="17" viewBox="0 0 16 17" fill="none" xmlns="http://www.w3.org/2000/svg">
<path fill-rule="evenodd" clip-rule="evenodd" d="M11.0924 4.61109C10.5207 4.61109 10.0573 5.07537 10.0573 5.64811V6.47785H13.4214V9.64077H10.0055V6.50367H6.95195V9.64077H10.0055V10.9889C10.0055 13.4804 7.98961 15.5 5.50277 15.5C3.01598 15.5 1 13.4804 1 10.9889C1 8.49755 3.01598 6.47785 5.50277 6.47785H6.95195V5.64811C6.95195 3.35721 8.80568 1.5 11.0924 1.5H15V4.61109H11.0924ZM4.10537 10.9889C4.10537 10.2157 4.73104 9.58895 5.50277 9.58895H6.90022V10.9889C6.90022 11.7621 6.27456 12.3889 5.50277 12.3889C4.73104 12.3889 4.10537 11.7621 4.10537 10.9889Z" fill="black"/>
</svg>
