<svg width="58" height="58" viewBox="0 0 58 58" fill="none" xmlns="http://www.w3.org/2000/svg">
<path fill-rule="evenodd" clip-rule="evenodd" d="M54.1224 21.4905V21.3064V21.1222V20.938C54.1224 20.9074 54.1067 20.8767 54.091 20.846C54.0753 20.8153 54.0596 20.7846 54.0596 20.7539V20.6925L53.9967 20.6311C53.9967 20.6052 53.9967 20.5902 53.992 20.5769C53.9855 20.5587 53.9702 20.5438 53.9339 20.5083L45.3861 8.04638C45.1347 7.67805 44.6948 7.4325 44.2548 7.4325H13.7091C13.2692 7.4325 12.8292 7.67805 12.5778 8.04638L4.03005 20.5697C4.03005 20.5697 4.03005 20.6311 3.96719 20.6925L3.90434 20.7539V20.8153C3.90434 20.846 3.88863 20.8767 3.87292 20.9074C3.8572 20.938 3.84149 20.9687 3.84149 20.9994V21.5519C3.84149 21.5826 3.8572 21.6133 3.87292 21.644C3.88863 21.6747 3.90434 21.7054 3.90434 21.7361C3.90434 21.7668 3.92006 21.7975 3.93577 21.8282C3.95148 21.8589 3.96719 21.8896 3.96719 21.9203V21.9817C3.96719 22.0124 3.98291 22.0277 3.99862 22.043C4.01433 22.0584 4.03005 22.0737 4.03005 22.1044C4.03005 22.1351 4.04576 22.1505 4.06147 22.1658C4.07718 22.1812 4.0929 22.1965 4.0929 22.2272L27.8506 50.1592L28.0392 50.3433H28.1649C28.1963 50.3433 28.212 50.3587 28.2278 50.374C28.2435 50.3894 28.2592 50.4047 28.2906 50.4047H28.3535C28.4163 50.4047 28.4792 50.4661 28.4792 50.4661H28.6049C28.6677 50.4661 28.7148 50.4814 28.762 50.4968L28.762 50.4968C28.8091 50.5121 28.8563 50.5275 28.9191 50.5275C29.0448 50.5275 29.1077 50.5275 29.2334 50.4661H29.2962C29.2962 50.4661 29.3591 50.4661 29.3591 50.4047C29.4219 50.4047 29.4848 50.3433 29.4848 50.3433H29.5476C29.5791 50.3433 29.5948 50.328 29.6105 50.3126C29.6262 50.2973 29.6419 50.2819 29.6733 50.2819H29.799L29.9876 50.0978L53.7453 22.1658C53.7453 22.1351 53.761 22.1198 53.7768 22.1044C53.7925 22.0891 53.8082 22.0737 53.8082 22.043C53.8082 22.0124 53.8239 21.997 53.8396 21.9817C53.8553 21.9663 53.871 21.951 53.871 21.9203V21.8589C53.871 21.8282 53.8867 21.7975 53.9025 21.7668C53.9182 21.7361 53.9339 21.7054 53.9339 21.6747C54.0596 21.6747 54.1224 21.6133 54.1224 21.4905ZM43.5006 10.0722L50.2257 19.9558H39.6038L36.9012 10.0722H43.5006ZM34.0729 10.0722H23.891L22.5711 14.8606L21.1884 19.9558H36.7755L34.0729 10.0722ZM28.2906 43.0381L21.3141 22.6569H36.6498L36.147 24.0689L28.982 45.0025L28.2906 43.0381ZM21.0627 10.0722H14.4633L7.73827 19.9558H18.3601L19.68 15.1675L21.0627 10.0722ZM8.11537 22.6569H18.423L25.3995 42.9153L8.11537 22.6569ZM39.6038 22.5956L32.6273 42.8539L49.9114 22.5956H39.6038Z" fill="black"/>
</svg>
