<svg width="16" height="16" viewBox="0 0 16 16" fill="none" xmlns="http://www.w3.org/2000/svg">
<path d="M6.09057 1C5.38714 1.00052 4.81784 1.57044 4.81836 2.27273C4.81784 2.97501 5.38766 3.54494 6.09109 3.54545H7.36381V2.27325C7.36433 1.57096 6.79452 1.00104 6.09057 1C6.09109 1 6.09109 1 6.09057 1" fill="black"/>
<path d="M5.99976 4.81836H2.36388C1.61007 4.81888 0.999444 5.38869 1 6.09083C0.998887 6.79297 1.60951 7.36278 2.36332 7.36381H5.99976C6.75357 7.36329 7.36419 6.79349 7.36364 6.09135C7.36419 5.38869 6.75357 4.81888 5.99976 4.81836Z" fill="black"/>
<path d="M15 6.09083C15.0006 5.38869 14.4307 4.81888 13.7273 4.81836C13.0239 4.81888 12.4541 5.38869 12.4546 6.09083V7.36381H13.7273C14.4307 7.36329 15.0006 6.79349 15 6.09083Z" fill="black"/>
<path d="M11.1817 5.99972V2.36336C11.1822 1.61162 10.6128 1.00111 9.90922 1C9.20564 1.00056 8.63571 1.61106 8.63623 2.36336V5.99972C8.63519 6.75202 9.20512 7.36252 9.9087 7.36364C10.6123 7.36308 11.1822 6.75257 11.1817 5.99972Z" fill="black"/>
<path d="M9.90896 15C10.6124 14.9995 11.1822 14.4296 11.1817 13.7273C11.1822 13.025 10.6124 12.4551 9.90896 12.4546H8.63623V13.7273C8.63571 14.4291 9.20553 14.999 9.90896 15Z" fill="black"/>
<path d="M9.99955 11.1817H13.636C14.3898 11.1812 15.0004 10.6114 14.9999 9.90922C15.001 9.20708 14.3904 8.63727 13.6365 8.63623H10.0001C9.2463 8.63675 8.63567 9.20656 8.63623 9.9087C8.63567 10.6114 9.24574 11.1812 9.99955 11.1817Z" fill="black"/>
<path d="M1 9.90896C0.99948 10.6112 1.5693 11.1812 2.27273 11.1817C2.97616 11.1812 3.54597 10.6112 3.54545 9.90896V8.63623H2.27273C1.5693 8.63675 0.99948 9.20667 1 9.90896Z" fill="black"/>
<path d="M4.81836 9.99915V13.6358C4.81732 14.3882 5.38725 14.9988 6.09083 14.9999C6.7944 14.9993 7.36433 14.3887 7.36381 13.6364V10.0003C7.36485 9.2479 6.79492 8.63734 6.09135 8.63623C5.38725 8.63623 4.81784 9.24679 4.81836 9.99915C4.81836 9.99971 4.81836 9.99915 4.81836 9.99915Z" fill="black"/>
</svg>
