<svg width="115" height="89" viewBox="0 0 115 89" fill="none" xmlns="http://www.w3.org/2000/svg">
<path d="M0.655473 7.02383C15.4864 33.0266 27.8868 62.5396 54.0461 79.3586C66.5885 87.4227 82.9229 92.3732 97.2827 86.283C103.374 83.6996 108.908 79.2108 111.95 73.2323C115.526 66.2051 115.638 58.2592 113.925 50.6923C112.314 43.5736 109.19 36.5921 105.472 30.3311C101.941 24.3833 97.5112 19.0225 91.9294 14.9099C82.1296 7.68943 67.7913 6.28724 57.5687 13.5695C52.1044 17.4622 48.8322 23.2053 48.239 29.9058C47.5964 37.1649 50.6365 44.5464 54.6499 50.4375C58.6484 56.3069 63.9175 62.1714 70.3457 65.3923C76.9547 68.7038 85.4436 69.3751 91.6755 64.8088C97.5171 60.5285 99.9936 53.1664 98.9728 46.1157C97.8866 38.6134 93.1299 31.8042 87.1835 27.2727C81.5447 22.9756 73.7608 21.289 67.5519 25.4784C61.4308 29.6084 59.9246 38.1866 65.6093 43.4531C68.2824 45.9295 72.0515 47.071 75.5721 45.8854C81.2599 43.9701 78.8205 34.8992 73.0805 36.8321C72.4552 37.0426 72.8235 37.2659 72.2368 36.8142C71.778 36.461 71.3338 35.8588 71.2867 35.2682C71.2165 34.3891 72.5545 33.2419 73.6213 32.7983C78.0522 30.9553 82.6707 35.2562 85.3327 38.3875C88.4807 42.0905 90.7993 47.1936 89.5127 52.1038C88.3023 56.7232 84.479 59.0833 79.7848 58.6485C74.5179 58.1607 70.2403 54.4036 66.79 50.6934C63.1336 46.7616 59.9033 42.1306 58.3654 36.9325C57.0537 32.4989 57.1511 27.5414 60.1373 23.7774C62.3947 20.932 66.0161 19.302 69.7082 18.4878C78.824 16.4776 87.3495 21.902 93.1508 28.9092C96.4964 32.9502 99.0522 37.7088 101.221 42.4668C103.639 47.7729 105.597 53.6321 105.679 59.5132C105.827 70.1794 97.9079 77.8425 87.6583 79.3771C76.0025 81.1222 64.2158 75.4186 55.0648 68.6949C32.8826 52.3964 21.9677 25.4622 8.74854 2.28516C5.75673 -2.96036 -2.34451 1.76403 0.655473 7.02384V7.02383Z" fill="#01010C"/>
</svg>
