<svg width="16" height="16" viewBox="0 0 16 16" fill="none" xmlns="http://www.w3.org/2000/svg">
<rect width="16" height="16" fill="white"/>
<path fill-rule="evenodd" clip-rule="evenodd" d="M12 14.9194C10.7742 15.6398 9.44086 16 8 16C6.55914 16 5.22581 15.6398 4 14.9194C2.77419 14.1989 1.80108 13.2258 1.08065 12C0.360215 10.7742 0 9.44086 0 8C0 6.55914 0.360215 5.22581 1.08065 4C1.80108 2.77419 2.77419 1.80108 4 1.08065C5.22581 0.360215 6.55914 0 8 0C9.44086 0 10.7742 0.360215 12 1.08065C13.2258 1.80108 14.1989 2.77419 14.9194 4C15.6398 5.22581 16 6.55914 16 8C16 9.44086 15.6398 10.7742 14.9194 12C14.1989 13.2258 13.2258 14.1989 12 14.9194ZM12.7097 7.06452C12.8387 7.15054 12.9785 7.19355 13.129 7.19355C13.3226 7.19355 13.4946 7.12366 13.6452 6.98387C13.7957 6.84409 13.871 6.66667 13.871 6.45161C13.871 6.12903 13.7312 5.88172 13.4516 5.70968C12.5699 5.21505 11.5376 4.82796 10.3548 4.54839C9.21505 4.29032 8.04301 4.16129 6.83871 4.16129C5.41935 4.16129 4.15054 4.33333 3.03226 4.67742C2.88172 4.72043 2.75269 4.80645 2.64516 4.93548C2.53763 5.06452 2.48387 5.23118 2.48387 5.43548C2.48387 5.63978 2.55376 5.8172 2.69355 5.96774C2.83333 6.11828 3.01075 6.19355 3.22581 6.19355C3.31183 6.19355 3.43011 6.17204 3.58065 6.12903L3.64516 6.09677C5 5.73118 6.54839 5.63441 8.29032 5.80645C10.0968 5.97849 11.5699 6.39785 12.7097 7.06452ZM12.129 9.64516C12.0215 9.64516 11.9032 9.6129 11.7742 9.54839L11.7097 9.51613C10.6774 8.91398 9.48387 8.51613 8.12903 8.32258C6.68817 8.12903 5.32258 8.21505 4.03226 8.58065L3.90323 8.6129C3.7957 8.63441 3.70968 8.64516 3.64516 8.64516C3.47312 8.64516 3.32258 8.58602 3.19355 8.46774C3.06452 8.34946 3 8.2043 3 8.03226C3 7.68817 3.17204 7.46237 3.51613 7.35484C4.54839 7.07527 5.5914 6.93548 6.64516 6.93548C7.69893 6.93548 8.72043 7.05914 9.70968 7.30645C10.6989 7.55376 11.5914 7.91398 12.3871 8.3871C12.6237 8.53763 12.7419 8.75269 12.7419 9.03226C12.7419 9.2043 12.6828 9.34946 12.5645 9.46774C12.4462 9.58602 12.3011 9.64516 12.129 9.64516ZM10.9032 11.6452C11.0323 11.7312 11.1505 11.7742 11.2581 11.7742C11.3871 11.7742 11.5 11.7258 11.5968 11.629C11.6935 11.5323 11.7419 11.414 11.7419 11.2742C11.7419 11.1344 11.7151 11.0269 11.6613 10.9516C11.6075 10.8763 11.5269 10.8065 11.4194 10.7419C9.35484 9.51613 6.80645 9.23656 3.77419 9.90323C3.49462 9.96774 3.35484 10.1505 3.35484 10.4516C3.35484 10.5806 3.39785 10.6935 3.48387 10.7903C3.56989 10.8871 3.68817 10.9355 3.83871 10.9355C3.90323 10.9355 4.01075 10.9247 4.16129 10.9032L4.22581 10.871C6.89247 10.3118 9.11828 10.5699 10.9032 11.6452Z" fill="black"/>
</svg>
