<svg width="24" height="24" viewBox="0 0 24 24" fill="none" xmlns="http://www.w3.org/2000/svg">
<path fill-rule="evenodd" clip-rule="evenodd" d="M4.39418 1.60254L0.0179978 10.7947C-0.0161833 10.8649 -0.000707785 10.9492 0.0561806 11.0026L11.8752 22.3281C11.945 22.395 12.055 22.395 12.1248 22.3281L23.9438 11.0033C24.0007 10.9499 24.0162 10.8656 23.982 10.7954L19.6058 1.60325C19.577 1.5402 19.5139 1.49983 19.4446 1.50001H4.55681C4.48713 1.49915 4.42344 1.5393 4.39418 1.60254V1.60254Z" fill="black"/>
<path fill-rule="evenodd" clip-rule="evenodd" d="M13.5184 11.7388V11.7388C13.4336 11.7451 12.9952 11.7713 12.0173 11.7713C11.2395 11.7713 10.6872 11.748 10.4935 11.7388V11.7388C7.48765 11.6065 5.24405 11.0833 5.24405 10.4568C5.24405 9.83033 7.48765 9.30779 10.4935 9.17345V11.2176C10.6901 11.2318 11.2529 11.265 12.0307 11.265C12.9641 11.265 13.4314 11.2261 13.5156 11.2184V9.17486C16.5151 9.3085 18.7537 9.83175 18.7537 10.4568C18.7537 11.0819 16.5158 11.6051 13.5156 11.7381V11.7381L13.5184 11.7388ZM13.5184 8.96344V7.1342H17.7044V4.34473H6.30751V7.1342H10.4928V8.96273C7.09097 9.119 4.53271 9.79286 4.53271 10.6004C4.53271 11.4079 7.09097 12.081 10.4928 12.238V18.0998H13.5177V12.2359C16.9117 12.0796 19.4658 11.4064 19.4658 10.5996C19.4658 9.79286 16.9139 9.11971 13.5177 8.96273V8.96273L13.5184 8.96344Z" fill="white"/>
</svg>
