<?xml version="1.0" encoding="UTF-8"?>
<svg width="16px" height="16px" viewBox="0 0 16 16" version="1.1" xmlns="http://www.w3.org/2000/svg" xmlns:xlink="http://www.w3.org/1999/xlink">
    <title>18x18</title>
    <g id="18x18" stroke="none" stroke-width="1" fill="none" fill-rule="evenodd">
        <g id="Group" transform="translate(1.350000, 1.350000)" fill="#000000" fill-rule="nonzero">
            <path d="M5.21875,13.15625 C5.30208,13.01045 5.75,12.22915 6.5625,10.81245 C7.375,9.39583 8,8.32292 8.4375,7.59375 L10.87505,11.81245 C10.37505,12.22915 9.70835,12.58335 8.875,12.87505 C8.04167,13.16665 7.30208,13.31245 6.65625,13.31245 C6.15625,13.31245 5.67708,13.26045 5.21875,13.15625 Z M0.28125,8.65625 L6.75,8.65625 L4.28125,12.87505 C3.32292,12.52085 2.48958,11.97915 1.78125,11.25005 C1.09375,10.50005 0.59375,9.63542 0.28125,8.65625 Z M1.75,2.15625 L5.125,8 L0.125,8 C0.041667,7.5 0,7.05208 0,6.65625 C0,5.94792 0.166667,5.15625 0.5,4.28125 C0.85417,3.40625 1.27083,2.69792 1.75,2.15625 Z M13.18745,5.3125 C13.27085,5.70833 13.31245,6.15625 13.31245,6.65625 C13.31245,7.36458 13.13545,8.15625 12.78125,9.03125 C12.44795,9.90625 12.04165,10.61455 11.56245,11.15625 L8.375,5.65625 L8.1875,5.3125 L13.18745,5.3125 Z M13.03125,4.65625 L6.5625,4.65625 L9.03125,0.4375 C9.98955,0.79167 10.81245,1.34375 11.50005,2.09375 C12.20835,2.82292 12.71875,3.67708 13.03125,4.65625 Z M4.9375,5.65625 L4.875,5.71875 L2.4375,1.5 C2.9375,1.08333 3.60417,0.72917 4.4375,0.4375 C5.27083,0.145833 6.01042,0 6.65625,0 C7.15625,0 7.63542,0.052083 8.09375,0.15625 L4.9375,5.65625 Z" id="Shape"></path>
        </g>
    </g>
</svg>