<svg width="20" height="20" viewBox="0 0 20 20" fill="none" xmlns="http://www.w3.org/2000/svg">
<rect width="20" height="20" fill="white"/>
<circle cx="10" cy="10" r="10" fill="#005B9C"/>
<mask id="mask0_130_32456" style="mask-type:luminance" maskUnits="userSpaceOnUse" x="0" y="0" width="20" height="20">
<circle cx="10" cy="10" r="10" fill="white"/>
</mask>
<g mask="url(#mask0_130_32456)">
<path d="M1.91618 0H10.731C11.9614 0 12.7267 0.907995 12.4397 2.02568L8.33578 17.9774C8.04616 19.0912 6.81419 20 5.58287 20H-3.23106C-4.4598 20 -5.22683 19.0912 -4.93979 17.9774L-0.834154 2.02568C-0.54711 0.907995 0.684214 0 1.91618 0" fill="#535353"/>
<path d="M9.86948 0H19.8259C21.0342 0 20.4894 0.907995 20.2051 2.02568L16.1748 17.9774C15.8921 19.0912 15.9803 20 14.7694 20H4.81298C3.60209 20 2.85272 19.0912 3.13719 17.9774L7.16724 2.02568C7.45339 0.907995 8.66027 0 9.86948 0" fill="#393939"/>
<path d="M19.4155 0H28.2307C29.4629 0 30.2282 0.907995 29.9388 2.02568L25.8354 17.9774C25.5457 19.0912 24.3129 20 23.0808 20H14.2698C13.0369 20 12.2722 19.0912 12.561 17.9774L16.6651 2.02568C16.9521 0.907995 18.1826 0 19.4155 0" fill="black"/>
</g>
<path fill-rule="evenodd" clip-rule="evenodd" d="M13.7937 6.2784C12.5345 6.2914 12.1626 6.2784 12.0438 6.25C11.9981 6.46967 11.1484 10.438 11.146 10.4413C10.963 11.2442 10.8299 11.8165 10.3777 12.186C10.1211 12.4008 9.82139 12.5045 9.47397 12.5045C8.91553 12.5045 8.59019 12.2238 8.53557 11.6914L8.52513 11.5086C8.52513 11.5086 8.69525 10.4332 8.69525 10.4271C8.69525 10.4271 9.58709 6.81082 9.74677 6.33279C9.75513 6.3056 9.75751 6.2914 9.7596 6.2784C8.02369 6.29381 7.71597 6.2784 7.69478 6.25C7.68314 6.28898 7.64016 6.51318 7.64016 6.51318L6.72952 10.5891L6.65132 10.9347L6.5 12.0654C6.5 12.4008 6.56507 12.6746 6.6946 12.9061C7.10948 13.64 8.29292 13.75 8.96239 13.75C9.82497 13.75 10.6341 13.5645 11.1809 13.2257C12.1301 12.658 12.3784 11.7705 12.5999 10.9819L12.7025 10.5773C12.7025 10.5773 13.6212 6.82139 13.7773 6.33279C13.7833 6.3056 13.7857 6.2914 13.7937 6.2784Z" fill="white"/>
</svg>
