<svg width="20" height="20" viewBox="0 0 20 20" fill="none" xmlns="http://www.w3.org/2000/svg">
<rect width="20" height="20" fill="white"/>
<path fill-rule="evenodd" clip-rule="evenodd" d="M13.6543 3.75L10.2473 13.207L9.84456 11.1705L9.84493 11.1712L8.6422 4.9884C8.6422 4.9884 8.49719 3.75 6.94716 3.75H1.31572L1.25 3.98245C1.25 3.98245 2.97258 4.34143 4.9874 5.55482L8.09187 17.5H11.815L17.5 3.75H13.6543Z" fill="black"/>
<path fill-rule="evenodd" clip-rule="evenodd" d="M10 11.25L8.77558 5.00155C8.77558 5.00155 8.62794 3.75 7.04994 3.75H1.3169L1.25 3.98492C1.25 3.98492 4.0057 4.55327 6.64928 6.68094C9.17587 8.71494 10 11.25 10 11.25Z" fill="#393939"/>
</svg>
