<?xml version="1.0" encoding="UTF-8"?>
<svg width="16px" height="16px" viewBox="0 0 16 16" version="1.1" xmlns="http://www.w3.org/2000/svg" xmlns:xlink="http://www.w3.org/1999/xlink">
    <title>18x18</title>
    <g id="18x18" stroke="none" stroke-width="1" fill="none" fill-rule="evenodd">
        <g id="Group" transform="translate(1.670000, 2.000000)" fill="#000000" fill-rule="nonzero">
            <path d="M7.9375,6.71875 C8.14583,6.90625 8.38542,7 8.65625,7 C8.92708,7 9.15625,6.90625 9.34375,6.71875 C9.55208,6.53125 9.65625,6.29167 9.65625,6 C9.65625,5.70833 9.55208,5.46875 9.34375,5.28125 C9.15625,5.09375 8.92708,5 8.65625,5 C8.38542,5 8.14583,5.09375 7.9375,5.28125 C7.75,5.46875 7.65625,5.70833 7.65625,6 C7.65625,6.29167 7.75,6.53125 7.9375,6.71875 Z M6,8.65625 L6,3.34375 L12.6562,3.34375 L12.6562,8.65625 L6,8.65625 Z M12,10 L12,10.6562 C12,11.0104 11.8646,11.3229 11.5938,11.5938 C11.3229,11.8646 11.0104,12 10.6562,12 L1.34375,12 C0.96875,12 0.645833,11.875 0.375,11.625 C0.125,11.3542 0,11.0312 0,10.6562 L0,1.34375 C0,0.96875 0.125,0.65625 0.375,0.40625 C0.645833,0.135417 0.96875,0 1.34375,0 L10.6562,0 C11.0104,0 11.3229,0.135417 11.5938,0.40625 C11.8646,0.677083 12,0.989583 12,1.34375 L12,2 L6,2 C5.625,2 5.30208,2.13542 5.03125,2.40625 C4.78125,2.65625 4.65625,2.96875 4.65625,3.34375 L4.65625,8.65625 C4.65625,9.03125 4.78125,9.35417 5.03125,9.625 C5.30208,9.875 5.625,10 6,10 L12,10 Z" id="Shape"></path>
        </g>
    </g>
</svg>