<svg width="17" height="17" viewBox="0 0 17 17" fill="none" xmlns="http://www.w3.org/2000/svg">
<path fill-rule="evenodd" clip-rule="evenodd" d="M15.278 0H1.38863C0.621711 0 0 0.621711 0 1.38863V15.278C0 16.045 0.621711 16.6667 1.38863 16.6667H15.278C16.045 16.6667 16.6667 16.045 16.6667 15.278V1.38863C16.6667 0.621711 16.045 0 15.278 0ZM7.31156 8.42018L4.36508 12.8968H6.4993L8.25144 9.75906C8.33261 9.63196 8.39875 9.49623 8.4486 9.35447H8.47381C8.52888 9.49917 8.5969 9.63883 8.67706 9.77179L10.3788 12.8968H12.5L9.66124 8.39546L12.4297 3.96976H10.4361L8.86121 6.79059C8.75423 6.99389 8.65235 7.20342 8.55556 7.4192H8.53646C8.48602 7.28659 8.39281 7.08579 8.25678 6.81532L6.78354 3.96825H4.6119L7.31156 8.42018Z" fill="black"/>
</svg>
